<svg xmlns="http://www.w3.org/2000/svg" width="600" height="600" version="1.1"><rect width="75" height="225" x="0" y="0" fill="hsl(359, 100%, 50%)"/><rect width="75" height="225" x="75" y="0" fill="hsl(6, 100%, 40%)"/><rect width="75" height="225" x="150" y="0" fill="hsl(55, 100%, 50%)"/><rect width="75" height="225" x="225" y="0" fill="hsl(95, 100%, 36%)"/><rect width="75" height="225" x="300" y="0" fill="hsl(180, 100%, 66%)"/><rect width="75" height="225" x="375" y="0" fill="hsl(210, 100%, 26%)"/><rect width="75" height="225" x="450" y="0" fill="hsl(210, 100%, 50%)"/><rect width="75" height="225" x="525" y="0" fill="hsl(291, 100%, 77%)"/><rect width="75" height="225" x="0" y="375" fill="hsl(0, 0%, 0%)"/><rect width="75" height="225" x="75" y="375" fill="hsl(0, 0%, 12.5%)"/><rect width="75" height="225" x="150" y="375" fill="hsl(0, 0%, 25%)"/><rect width="75" height="225" x="225" y="375" fill="hsl(0, 0%, 37.5%)"/><rect width="75" height="225" x="300" y="375" fill="hsl(0, 0%, 50%)"/><rect width="75" height="225" x="375" y="375" fill="hsl(0, 0%, 62.5%)"/><rect width="75" height="225" x="450" y="375" fill="hsl(0, 0%, 77.5%)"/><rect width="75" height="225" x="525" y="375" fill="hsl(0, 0%, 100%)"/><rect width="600" height="150" x="0" y="225" fill="hsl(0, 0%, 100%)"/></svg>