<svg xmlns="http://www.w3.org/2000/svg" xmlns:xlink="http://www.w3.org/1999/xlink" id="Layer_1" x="0" y="0" version="1.1" viewBox="0 0 600 600" xml:space="preserve" style="enable-background:new 0 0 600 600"><style type="text/css">.st0{stroke:#fff;stroke-width:2;stroke-miterlimit:10}.st0,.st1{fill:#fff}.st2{font-family:&apos;B612-Regular&apos;}.st3{font-size:22.4px}.st4,.st5{fill:none;stroke:#fff;stroke-width:2;stroke-miterlimit:10}.st5{stroke:#00c800}.st6{font-size:18.29px}.st7{fill:#00c800}.st8{fill:#0ab9b9}.st9{stroke-width:3}.st10{fill:none;stroke:#fff}.st10,.st11,.st9{stroke-miterlimit:10}.st9{fill:none;stroke:#fff}.st11{fill:#fff;stroke:#000}</style><rect width="600" height="600" y="0"/><g><path d="M2.4,506.31" class="st0"/><text class="st1 st2 st3" transform="matrix(1 0 0 1 27.3566 38.2644)">BLEED</text><line x1="28.61" x2="97.17" y1="44.51" y2="44.51" class="st4"/><polyline points="120.22 68.54 120.22 49.29 479.22 49.29 479.22 70.54" class="st5"/><polygon points="180.29 43.54 173.36 43.54 176.83 37.54 180.29 31.54 183.76 37.54 187.22 43.54" class="st5"/><polygon points="299.93 43.54 293.01 43.54 296.47 37.54 299.93 31.54 303.4 37.54 306.86 43.54" class="st5"/><polygon points="419.93 43.54 413.01 43.54 416.47 37.54 419.93 31.54 423.4 37.54 426.86 43.54" class="st5"/><polyline points="182.22 453.54 210.22 453.54 210.22 468.46" class="st5"/><polyline points="390.22 468.54 390.22 453.54 418.05 453.54" class="st5"/><line x1="120.65" x2="120.65" y1="468.46" y2="424.97" class="st5"/><line x1="120.65" x2="120.65" y1="391.97" y2="367.54" class="st5"/><line x1="480.05" x2="480.05" y1="468.54" y2="424.54" class="st5"/><line x1="480.05" x2="480.05" y1="392.21" y2="367.21" class="st5"/><line x1="120.65" x2="120.65" y1="317.54" y2="245.04" class="st5"/><line x1="120.22" x2="343.22" y1="276.29" y2="276.29" class="st5"/><line x1="374.22" x2="480.22" y1="276.54" y2="276.54" class="st5"/><line x1="299.34" x2="299.34" y1="276.54" y2="345.42" class="st5"/><line x1="299.09" x2="299.09" y1="376.54" y2="386.54" class="st5"/><line x1="480.22" x2="480.22" y1="317.54" y2="244.83" class="st5"/><line x1="300.2" x2="300.23" y1="126.8" y2="103.53" class="st5"/><text class="st1 st2 st6" transform="matrix(1 0 0 1 282.5466 403.3845)">APU</text><text class="st1 st2 st6" transform="matrix(1 0 0 1 281.5466 146.3844)">RAM</text><text class="st1 st2 st6" transform="matrix(1 0 0 1 59.5466 148.3844)">C</text><text class="st7 st2 st6" transform="matrix(1 0 0 1 108.5466 96.3844)">XX</text><text class="st7 st2 st6" transform="matrix(1 0 0 1 468.5466 100.3844)">XX</text><text class="st7 st2 st6" transform="matrix(1 0 0 1 468.5466 161.3844)">XX</text><text class="st7 st2 st6" transform="matrix(1 0 0 1 109.5466 155.3844)">XX</text><text class="st7 st2 st6" transform="matrix(1 0 0 1 107.5466 337.3845)">XX</text><text class="st7 st2 st6" transform="matrix(1 0 0 1 101.5466 359.3845)">XXX</text><text class="st7 st2 st6" transform="matrix(1 0 0 1 468.5466 338.3845)">XX</text><text class="st7 st2 st6" transform="matrix(1 0 0 1 462.5466 360.3845)">XXX</text><text class="st1 st2 st6" transform="matrix(1 0 0 1 170.5466 148.3844)">H</text><text class="st8 st2 st6" transform="matrix(1 0 0 1 145.5466 96.3844)">°C</text><text class="st8 st2 st6" transform="matrix(1 0 0 1 145.5466 171.3844)">°C</text><text class="st8 st2 st6" transform="matrix(1 0 0 1 148.5466 337.3845)">PSI</text><text class="st8 st2 st6" transform="matrix(1 0 0 1 112.5466 487.3845)">IP</text><text class="st8 st2 st6" transform="matrix(1 0 0 1 473.5466 487.3845)">IP</text><text class="st8 st2 st6" transform="matrix(1 0 0 1 197.5466 487.3845)">HP</text><text class="st8 st2 st6" transform="matrix(1 0 0 1 378.5466 487.3845)">HP</text><text class="st8 st2 st6" transform="matrix(1 0 0 1 157.5466 361.3845)">°C</text><text class="st8 st2 st6" transform="matrix(1 0 0 1 421.5466 337.3845)">PSI</text><text class="st8 st2 st6" transform="matrix(1 0 0 1 430.5466 361.3845)">°C</text><text class="st1 st2 st6" transform="matrix(1 0 0 1 47.5466 214.3844)">L</text><text class="st1 st2 st6" transform="matrix(1 0 0 1 56.6966 214.3844)">O</text><text class="st1 st2 st6" transform="matrix(1 0 0 1 169.5466 214.3844)">HI</text><text class="st1 st2 st6" transform="matrix(1 0 0 1 223.5466 317.3845)">GND</text><text class="st1 st2 st6" transform="matrix(1.22 0 0 1 283.5466 169.3846)">AIR</text><text class="st1 st2 st6" transform="matrix(1 0 0 1 54.1666 414.9644)">1</text><text class="st1 st2 st6" transform="matrix(1 0 0 1 534.1666 414.9644)">2</text><text class="st1 st2 st6" transform="matrix(1 0 0 1 418.1766 148.3244)">C</text><text class="st1 st2 st6" transform="matrix(1 0 0 1 530.1766 148.3244)">H</text><text class="st1 st2 st6" transform="matrix(1 0 0 1 406.1766 214.3244)">L</text><text class="st1 st2 st6" transform="matrix(1 0 0 1 415.3266 214.3244)">O</text><text class="st1 st2 st6" transform="matrix(1 0 0 1 529.1766 214.3244)">HI</text><text class="st8 st2 st6" transform="matrix(1 0 0 1 503.0866 96.9944)">°C</text><text class="st8 st2 st6" transform="matrix(1 0 0 1 503.0866 174.9944)">°C</text><polyline points="76.22 207.54 76.1 146.38 75.97 77.49 120.22 68.54 166.72 76.04 166.49 206.81" class="st4"/><path d="M165.97,146.04L165.97,146.04z" class="st4"/><path d="M84.97,146.81L84.97,146.81z" class="st4"/><path d="M156.86,147.47c-1.13-7.67-4.73-14.77-10.26-20.2c-7-6.88-16.36-10.91-25.45-10.88s-18.07,4.22-25,11.28 c-5.54,5.6-9.05,12.89-10,20.71" class="st9"/><path d="M523.97,147.04L523.97,147.04z" class="st4"/><path d="M442.97,147.81L442.97,147.81z" class="st4"/><path d="M514.95,147.89c-1.13-7.67-4.73-14.77-10.26-20.2c-7-6.88-16.36-10.91-25.45-10.88s-18.07,4.22-25,11.28 c-5.54,5.6-9.05,12.89-10,20.71" class="st9"/><path d="M165.97,206.04L165.97,206.04z" class="st4"/><path d="M84.97,206.81L84.97,206.81z" class="st4"/><path d="M156.95,206.37c-1.13-7.67-4.73-14.77-10.26-20.2c-7-6.88-16.36-10.91-25.45-10.88s-18.07,4.22-25,11.28 c-5.54,5.6-9.05,12.89-10,20.71" class="st9"/><path d="M523.97,209.04L523.97,209.04z" class="st4"/><path d="M442.97,209.81L442.97,209.81z" class="st4"/><path d="M514.95,209.12c-1.13-7.67-4.73-13.99-10.26-19.43c-7-6.88-16.36-10.91-25.45-10.88s-18.07,4.22-25,11.28 c-5.54,5.6-9.05,12.89-10,20.71" class="st9"/><polyline points="434.22 210.67 434.1 148.38 433.97 79.49 478.22 70.54 524.72 78.04 524.72 209.54" class="st4"/><rect width="43" height="49" x="98.22" y="317.54" class="st10"/><rect width="43" height="49" x="458.72" y="318.04" class="st10"/><polygon points="242.89 283.54 247.36 291.29 251.83 299.04 242.89 299.04 233.94 299.04 238.41 291.29" class="st9"/><circle cx="120.49" cy="407.81" r="16" class="st5"/><line x1="104.49" x2="136.49" y1="407.81" y2="407.81" class="st5"/><line x1="120.49" x2="120.49" y1="391.81" y2="423.81" class="st5"/><circle cx="299.49" cy="360.81" r="16" class="st5"/><line x1="283.49" x2="315.49" y1="360.81" y2="360.81" class="st5"/><line x1="299.49" x2="299.49" y1="344.81" y2="376.81" class="st5"/><line x1="120.49" x2="120.49" y1="212.81" y2="244.81" class="st5"/><circle cx="480.49" cy="407.81" r="16" class="st5"/><line x1="464.49" x2="496.49" y1="407.81" y2="407.81" class="st5"/><line x1="480.49" x2="480.49" y1="391.81" y2="423.81" class="st5"/><circle cx="434.49" cy="453.81" r="16" class="st5"/><line x1="418.49" x2="450.49" y1="453.81" y2="453.81" class="st5"/><line x1="434.49" x2="434.49" y1="437.81" y2="469.81" class="st5"/><circle cx="165.49" cy="452.81" r="16" class="st5"/><line x1="149.49" x2="181.49" y1="452.81" y2="452.81" class="st5"/><line x1="165.49" x2="165.49" y1="436.81" y2="468.81" class="st5"/><circle cx="358.49" cy="276.81" r="16" class="st5"/><line x1="342.49" x2="374.49" y1="276.81" y2="276.81" class="st5"/><line x1="358.49" x2="358.49" y1="260.81" y2="292.81" class="st5"/><circle cx="480.49" cy="227.81" r="16" class="st5"/><line x1="464.49" x2="496.49" y1="227.81" y2="227.81" class="st5"/><line x1="480.49" x2="480.49" y1="211.81" y2="243.81" class="st5"/><circle cx="120.49" cy="228.81" r="16" class="st5"/><line x1="104.49" x2="136.49" y1="228.81" y2="228.81" class="st5"/><circle cx="300.49" cy="87.81" r="16" class="st5"/><line x1="284.49" x2="316.49" y1="87.81" y2="87.81" class="st5"/><line x1="300.49" x2="300.49" y1="71.81" y2="103.81" class="st5"/><path d="M75.97,147.8" class="st11"/><line x1="76.12" x2="87.73" y1="148.04" y2="148.04" class="st10"/><line x1="155.37" x2="166.68" y1="147.8" y2="147.8" class="st10"/><line x1="434.45" x2="445.77" y1="148.8" y2="148.8" class="st10"/><line x1="514.19" x2="525.5" y1="147.48" y2="147.48" class="st10"/><line x1="513.19" x2="524.5" y1="209.04" y2="209.04" class="st10"/><line x1="434.45" x2="445.77" y1="210.18" y2="210.18" class="st10"/><line x1="76.21" x2="87.82" y1="207.01" y2="207.01" class="st10"/><line x1="155.46" x2="167.47" y1="206.69" y2="206.69" class="st10"/></g></svg>