<svg xmlns="http://www.w3.org/2000/svg" xmlns:xlink="http://www.w3.org/1999/xlink" style="enable-background:new 0 0 600 600" id="Layer_1" x="0" y="0" version="1.1" viewBox="0 0 600 600" xml:space="preserve"><style type="text/css">.st0{fill:#fff}.st1{font-family:&apos;B612-Regular&apos;}.st2{font-size:22.3952px}.st3{fill:#00c800}.st4{fill:#00c900}.st5{fill:#b85c00}.st6{fill:#009595}.st7,.st8{stroke:#fff;stroke-miterlimit:10}.st7{fill:#fff;stroke-width:2}.st8{fill:none}.st9{font-size:15.1763px}.st10{stroke:#b91313;stroke-width:4}.st10,.st11,.st12,.st13{fill:none;stroke-miterlimit:10}.st11,.st12{stroke:#fff;stroke-width:2}.st12{stroke-width:4}.st13{stroke:#00b700;stroke-width:2}</style><rect width="599.8" height="599.79" x=".2" y=".21"/><text class="st0 st1 st2" transform="matrix(1 0 0 1 17.1401 42.7261)">CAB PRESS</text><text class="st0 st1 st2" transform="matrix(1 0 0 1 455.1401 333.7261)">SAFETY</text><text class="st0 st1 st2" transform="matrix(1 0 0 1 434.1401 487.7261)">PACK 2</text><text class="st0 st1 st2" transform="matrix(1 0 0 1 177.1401 403.7261)">VENT</text><text class="st0 st1 st2" transform="matrix(1 0 0 1 80.1401 487.7261)">PACK 1</text><text class="st3 st1 st2" transform="matrix(1 0 0 1 184.1401 331.7261)">SYS1</text><text class="st0 st1 st2" transform="matrix(1 0 0 1 133.1401 427.7261)">INLET OUTLET</text><text class="st0 st1 st2" transform="matrix(1 0 0 1 207.1401 42.7261)">LDG ELEV</text><text class="st0 st1 st2" transform="matrix(1 0 0 1 136.1401 102.7261)">ΔP</text><text class="st0 st1 st2" transform="matrix(1 0 0 1 280.1401 102.7261)">V/S</text><text class="st0 st1 st2" transform="matrix(1 0 0 1 403.1401 102.7261)">CAB ALT</text><text class="st4 st1 st2" transform="matrix(1 0 0 1 362.1401 42.7261)">AUTO</text><text class="st5 st1 st2" transform="matrix(1 0 0 1 484.1401 42.7261)">XXX</text><text class="st6 st1 st2" transform="matrix(1 0 0 1 541.1401 43.7261)">FT</text><text class="st6 st1 st2" transform="matrix(1 0 0 1 437.1401 127.7261)">FT</text><text class="st6 st1 st2" transform="matrix(1 0 0 1 259.1401 127.7261)">FT/MIN</text><text class="st6 st1 st2" transform="matrix(1 0 0 1 132.1401 127.7261)">PSI</text><line x1="13.39" x2="137" y1="48.97" y2="48.97" class="st7"/><path d="M187.41,155.69c-10.13-7.65-22.74-12.19-36.41-12.19c-16.62,0-31.68,6.7-42.61,17.55	C97.34,172.01,90.5,187.21,90.5,204c0,13.9,4.7,26.69,12.57,36.9" class="st8"/><line x1="112.5" x2="108.39" y1="165.5" y2="161.05" class="st8"/><line x1="177.5" x2="180.84" y1="157.5" y2="151.37" class="st8"/><line x1="104.5" x2="98.59" y1="229.5" y2="234.21" class="st8"/><text class="st0 st1 st9" transform="matrix(1.1151 0 0 1 166 172.6123)">8</text><text class="st0 st1 st9" transform="matrix(1.1151 0 0 1 299 166.6123)">2</text><text class="st0 st1 st9" transform="matrix(1.1151 0 0 1 298 251.6123)">2</text><text class="st0 st1 st9" transform="matrix(1.1151 0 0 1 251 208.6123)">0</text><text class="st0 st1 st9" transform="matrix(1.1151 0 0 1 107 234.6123)">0</text><line x1="104.5" x2="110" y1="239.78" y2="246" class="st10"/><line x1="187.5" x2="193" y1="156.78" y2="163" class="st10"/><line x1="301.1" x2="309.4" y1="143.82" y2="143.96" class="st10"/><line x1="300.1" x2="308.4" y1="261.82" y2="261.96" class="st10"/><path d="M486.41,155.69c-10.13-7.65-22.74-12.19-36.41-12.19c-16.62,0-31.68,6.7-42.61,17.55	c-11.05,10.96-17.89,26.16-17.89,42.95c0,13.9,4.7,26.69,12.57,36.9" class="st8"/><line x1="411.5" x2="407.39" y1="165.5" y2="161.05" class="st8"/><line x1="403.5" x2="397.59" y1="229.5" y2="234.21" class="st8"/><text class="st0 st1 st9" transform="matrix(1.1151 0 0 1 455 172.6123)">10</text><text class="st0 st1 st9" transform="matrix(1.1151 0 0 1 406 234.6123)">0</text><line x1="403.5" x2="409" y1="239.78" y2="246" class="st10"/><line x1="486.5" x2="492" y1="156.78" y2="163" class="st10"/><path d="M299.8,256v7.5c0,0-59.8-3.5-59.8-60.5s60-60,60-60v7.5" class="st8"/><line x1="262" x2="257.53" y1="240.9" y2="245.96" class="st8"/><line x1="262" x2="257.53" y1="166" y2="160.89" class="st8"/><line x1="246.12" x2="240" y1="203.25" y2="203" class="st8"/><polyline points="144 449 144 437 104.5 437 104.5 298 494.33 298 494.33 312" class="st11"/><polyline points="494.33 337 494.33 353 506.33 353" class="st11"/><polyline points="506 388 494.33 388 494.33 437.33 434.67 437.33" class="st11"/><polyline points="180 447 180 437.33 234.33 437.33 234.33 449" class="st11"/><path d="M270,449v-11.67h104c0,0,0.88-10.65,6.06-23.01C387.21,397.28,402.53,377,435,377" class="st11"/><line x1="373" x2="380.06" y1="411" y2="414.33" class="st11"/><line x1="387" x2="392.12" y1="390" y2="394.93" class="st11"/><line x1="410" x2="411.49" y1="376" y2="381.28" class="st11"/><path d="M434.67,369.3" class="st11"/><line x1="434.2" x2="434.2" y1="369.3" y2="378" class="st12"/><polygon points="120 446.5 124.47 454.25 128.95 462 120 462 111.05 462 115.53 454.25" class="st13"/><polygon points="474 446.5 478.47 454.25 482.95 462 474 462 465.05 462 469.53 454.25" class="st13"/></svg>