<svg xmlns="http://www.w3.org/2000/svg" xmlns:xlink="http://www.w3.org/1999/xlink" id="Layer_1" x="0" y="0" version="1.1" viewBox="0 0 600 600" xml:space="preserve" style="enable-background:new 0 0 600 600"><style type="text/css">.st0{fill:none;stroke:#fff;stroke-width:2;stroke-miterlimit:10}.st1{fill:#fff}.st2{font-family:&apos;B612-Regular&apos;}.st3{font-size:25.7753px}.st4{font-size:22.8472px}.st5{font-size:20.2832px}.st6{fill:#00c800}.st7{font-size:17.0304px}.st8{font-size:16.3427px}.st9{fill:none;stroke:#00c800;stroke-width:2;stroke-miterlimit:10}</style><rect width="600" height="600"/><path d="M97.67,128.79l18.75-6.85c1.68-0.61,3.11-1.74,4.1-3.23l2.49-3.74c1.3-1.95,3.12-3.49,5.25-4.45l15.8-7.11	c0.62-0.28,1.28-0.42,1.96-0.42h304.6c2.8,0,5.49,1.11,7.47,3.09L463,111" class="st0"/><line x1="358" x2="358" y1="134" y2="174" class="st0"/><line x1="230.89" x2="230.89" y1="103" y2="174" class="st0"/><text class="st1 st2 st3" transform="matrix(0.9593 0 0 1 26 55.5532)">COND</text><line x1="27.18" x2="94" y1="59.5" y2="59.5" class="st0"/><text class="st1 st2 st4" transform="matrix(0.9593 0 0 1 473.2998 59.8896)">TEMP:</text><text class="st1 st2 st5" transform="matrix(0.9593 0 0 1 150.3 128.7996)">CKPT</text><text class="st1 st2 st5" transform="matrix(0.9593 0 0 1 275.3 128.7996)">FWD</text><text class="st1 st2 st5" transform="matrix(0.9593 0 0 1 395.3 130.7996)">AFT</text><text class="st6 st2 st5" transform="matrix(0.9593 0 0 1 281.3 152.7996)">76</text><text class="st6 st2 st5" transform="matrix(0.9593 0 0 1 160.3 152.7996)">80</text><text class="st6 st2 st7" transform="matrix(0.9593 0 0 1 165.2998 189.9541)">64</text><text class="st6 st2 st7" transform="matrix(0.9593 0 0 1 179.2998 362.9541)">76</text><text class="st1 st2 st7" transform="matrix(0.9593 0 0 1 146.2998 218.9541)">C</text><text class="st1 st2 st7" transform="matrix(0.9593 0 0 1 133.2998 334.9541)">FWD</text><text class="st1 st2 st7" transform="matrix(0.9593 0 0 1 199.2998 217.9541)">H</text><text class="st6 st2 st7" transform="matrix(0.9593 0 0 1 286.2998 188.9541)">68</text><text class="st6 st2 st7" transform="matrix(0.9593 0 0 1 402.2998 188.9541)">76</text><text class="st6 st2 st5" transform="matrix(0.9593 0 0 1 398.3 153.7996)">78</text><text class="st1 st2 st8" transform="matrix(0.9593 0 0 1 543.2998 59.1978)">°F</text><path d="M101,160c0,0,26.17,14,45.58,14s13.43,0,13.43,0" class="st0"/><line x1="195" x2="280.94" y1="174" y2="174" class="st0"/><line x1="315.16" x2="397.84" y1="174" y2="174" class="st0"/><path d="M431.2,174h22.39c2.22,0,4.35-0.89,5.92-2.46L465,166" class="st0"/><polyline points="179 225 179 261 475 261" class="st9"/><polyline points="298.81 225 298.81 260.09 298.81 457.26 191 457.26 191 446.61" class="st9"/><line x1="416.6" x2="416.6" y1="225" y2="260.09" class="st9"/><path d="M163,212c0,0,5-7,15-7s16,7,16,7" class="st0"/><text class="st1 st2 st7" transform="matrix(0.9593 0 0 1 158.2998 438.9541)">C</text><text class="st1 st2 st7" transform="matrix(0.9593 0 0 1 211.2998 437.9541)">H</text><path d="M175,432c0,0,5-7,15-7s16,7,16,7" class="st0"/><line x1="178" x2="178" y1="197" y2="205" class="st0"/><text class="st1 st2 st7" transform="matrix(0.9593 0 0 1 266.2998 216.9541)">C</text><text class="st1 st2 st7" transform="matrix(0.9593 0 0 1 319.2998 215.9541)">H</text><path d="M283,210c0,0,5-7,15-7s16,7,16,7" class="st0"/><line x1="298" x2="298" y1="195" y2="203" class="st0"/><text class="st1 st2 st7" transform="matrix(0.9593 0 0 1 384.2998 215.9541)">C</text><text class="st1 st2 st7" transform="matrix(0.9593 0 0 1 437.2998 214.9541)">H</text><text class="st1 st2 st7" transform="matrix(0.9593 0 0 1 523.2998 252.9541)">HOT</text><text class="st1 st2 st7" transform="matrix(0.9593 0 0 1 528.2998 273.9541)">AIR</text><path d="M401,209c0,0,5-7,15-7s16,7,16,7" class="st0"/><line x1="416" x2="416" y1="194" y2="202" class="st0"/><line x1="190" x2="190" y1="425" y2="411.04" class="st9"/><line x1="190" x2="190" y1="380" y2="366.04" class="st9"/><circle cx="189.86" cy="395.01" r="15.5" class="st9"/><line x1="189.86" x2="189.86" y1="379.51" y2="410.51" class="st9"/><line x1="174.36" x2="205.38" y1="395.01" y2="395.01" class="st9"/><text class="st6 st2 st7" transform="matrix(0.9593 0 0 1 179.2747 334.6258)">80</text><polyline points="173.1 350.03 126.19 350.03 126.19 308 239 308 239 311.76" class="st0"/><polyline points="205.92 350.03 240 350.03 240 344.08" class="st0"/><line x1="255.02" x2="270.63" y1="328" y2="328" class="st9"/><circle cx="239.5" cy="327.5" r="15.5" class="st9"/><line x1="239.5" x2="239.5" y1="312" y2="343" class="st9"/><line x1="224" x2="255.02" y1="327.5" y2="327.5" class="st9"/><line x1="506.82" x2="522.43" y1="261.36" y2="261.36" class="st9"/><circle cx="491.3" cy="260.86" r="15.5" class="st9"/><line x1="491.3" x2="491.3" y1="245.36" y2="276.36" class="st9"/><line x1="475.8" x2="506.82" y1="260.86" y2="260.86" class="st9"/></svg>