<svg xmlns="http://www.w3.org/2000/svg" xmlns:xlink="http://www.w3.org/1999/xlink" id="Layer_1" x="0" y="0" version="1.1" viewBox="0 0 600 600" xml:space="preserve" style="enable-background:new 0 0 600 600"><style type="text/css">.st0{fill:#fff}.st1{font-family:&apos;B612-Regular&apos;}.st2{font-size:20.348px}.st3{font-size:26.1278px}.st4{font-size:17.9631px}.st5{font-size:25.1281px}.st6{fill:#00b400}.st7{fill:#00bbba}.st10,.st11,.st12{stroke-width:2;stroke-miterlimit:10}.st8{fill:#fff;stroke:#fff}.st8,.st9{stroke-width:2;stroke-miterlimit:10}.st10,.st11,.st12,.st9{fill:none}.st9{stroke:#00b400}.st10{stroke:#fff}.st11{stroke:#8f8f8f}.st12{stroke:#c95700}</style><rect width="599.2" height="599.2" x="1.01" y=".9"/><text class="st0 st1 st2" transform="matrix(1 0 0 1 452.8701 89.6665)">YELLOW</text><text class="st0 st1 st2" transform="matrix(1 0 0 1 523.8701 229.6665)">ELEC</text><text class="st0 st1 st2" transform="matrix(1 0 0 1 327.8701 293.6665)">ELEC</text><text class="st0 st1 st3" transform="matrix(1 0 0 1 438.8711 314.7246)">2</text><text class="st0 st1 st3" transform="matrix(1 0 0 1 144.8711 314.7246)">1</text><text class="st0 st1 st2" transform="matrix(1 0 0 1 227.8701 221.6665)">RAT</text><text class="st0 st1 st4" transform="matrix(1 0 0 1 375.8701 175.5796)">PTU</text><text class="st0 st1 st2" transform="matrix(1 0 0 1 274.8701 89.6665)">BLUE</text><text class="st0 st1 st5" transform="matrix(1 0 0 1 275.001 30.8501)">HYD</text><text class="st0 st1 st2" transform="matrix(1 0 0 1 74.8701 89.6665)">GREEN</text><text class="st6 st1 st2" transform="matrix(1 0 0 1 79.8701 121.6665)">3000</text><text class="st6 st1 st2" transform="matrix(1 0 0 1 272.8701 121.6665)">3000</text><text class="st6 st1 st2" transform="matrix(1 0 0 1 464.8701 121.6665)">3000</text><text class="st7 st1 st2" transform="matrix(1 0 0 1 187.8701 122.6665)">PSI</text><text class="st7 st1 st2" transform="matrix(1 0 0 1 379.8701 122.6665)">PSI</text><line x1="277.12" x2="322" y1="34.7" y2="34.7" class="st8"/><polygon points="108.05 52 111.81 58.5 115.56 65 108.05 65 100.55 65 104.3 58.5" class="st9"/><polygon points="300.05 52.5 303.81 59 307.56 65.5 300.05 65.5 292.55 65.5 296.3 59" class="st9"/><polygon points="492.05 52.5 495.81 59 499.56 65.5 492.05 65.5 484.55 65.5 488.3 59" class="st9"/><polygon points="349.5 169 356 165.25 362.5 161.49 362.5 169 362.5 176.51 356 172.75" class="st9"/><polygon points="504 223 510.5 219.25 517 215.49 517 223 517 230.51 510.5 226.75" class="st10"/><polygon points="286 222 279.5 225.75 273 229.51 273 222 273 214.49 279.5 218.25" class="st10"/><polygon points="199 169 205.5 165.25 212 161.49 212 169 212 176.51 205.5 172.75" class="st9"/><polygon points="435 169 428.5 172.75 422 176.51 422 169 422 161.49 428.5 165.25" class="st9"/><line x1="108" x2="108" y1="132" y2="338.33" class="st9"/><rect width="34" height="34" x="91" y="253" class="st9"/><polyline points="108 499.67 98.67 499.67 98.67 402.67 108 402.67 108 372.67" class="st9"/><polyline points="99 393 108 402.67 114 403.33 114 428 108 428 108 403" class="st9"/><line x1="108" x2="108" y1="475" y2="429" class="st11"/><rect width="6" height="25" x="108" y="475" class="st12"/><polyline points="300.09 500.36 290.76 500.36 290.76 403.36 300.09 403.36 300 132" class="st9"/><polyline points="291.09 393.69 300.09 403.36 306.09 404.02 306.09 428.69 300.09 428.69 300.09 403.69" class="st9"/><line x1="300.09" x2="300.09" y1="476" y2="429.69" class="st11"/><rect width="6" height="25" x="300.09" y="475.69" class="st12"/><polyline points="492 499.83 482.67 499.83 482.67 402.83 492 402.83 492 372.83" class="st9"/><polyline points="483 393.17 492 402.83 498 403.5 498 428.17 492 428.17 492 403.17" class="st9"/><line x1="492" x2="492" y1="475.17" y2="429.17" class="st11"/><rect width="6" height="25" x="492" y="475.17" class="st12"/><polygon points="317 341 283 341 283 307 300 307 317 307" class="st9"/><polygon points="509 287 475 287 475 253 492 253 509 253" class="st9"/><path d="M300,132" class="st9"/><path d="M212,169h69.67c0,0,2.33,19,18.33,19s18.67-19,18.67-19h30.83" class="st9"/><line x1="491" x2="491" y1="338" y2="133.33" class="st9"/></svg>