<svg xmlns="http://www.w3.org/2000/svg" xmlns:svg="http://www.w3.org/2000/svg" id="Layer_1" width="548.96" height="575.392" data-name="Layer 1" version="1.1" viewBox="0 0 548.96 575.392"><metadata id="metadata1295"/><defs id="defs4"><style id="style2">.cls-1,.cls-2,.cls-3,.cls-4,.cls-5{fill:none;stroke-miterlimit:10}.cls-1,.cls-2,.cls-3,.cls-4{stroke:#fff}.cls-1{stroke-width:.75px}.cls-3{stroke-width:.25px}.cls-4{stroke-width:.5px}.cls-5{stroke:#d43500}</style></defs><g id="g1940" transform="rotate(90,274.44378,274.48622)"><polygon id="polygon6" points="21.61 274.67 29.44 274.67 35.7 287 29.44 288.96" class="cls-1"/><polygon id="polygon8" points="36.47 287.61 41.48 289.94 41.48 296.48 30.42 289.94" class="cls-1"/><polygon id="polygon10" points="42.73 296.48 42.73 290.85 48.16 292.94 50.14 295.33 50.14 299.51" class="cls-1"/><polygon id="polygon12" points="21.68 273.55 29.51 273.55 35.77 261.23 29.51 259.27" class="cls-1"/><polygon id="polygon14" points="36.54 260.61 41.55 258.29 41.55 251.74 30.49 258.29" class="cls-1"/><polygon id="polygon16" points="42.8 251.74 42.8 257.38 48.23 255.29 50.21 252.89 50.21 248.72" class="cls-1"/><path id="path18" d="M 288.68,243.89 V 177.11 L 339.55,9.3400011 354.42,0.47000115 h -5.48 L 318.42,9.3400011 198.94,239.46 a 33,33 0 0 1 -6,2.7 33.59,33.59 0 0 1 -12,1.73 z" class="cls-2"/><path id="path20" d="m 288.68,202.42 a 30.08,30.08 0 0 0 13.67,-2.87 49.63,49.63 0 0 0 -6.26,-1.57 48.85,48.85 0 0 0 -7.41,-0.78" class="cls-1"/><path id="path22" d="m 297.87,145.16 a 48.85,48.85 0 0 1 7.41,0.78 49.72,49.72 0 0 1 6.26,1.56 29.73,29.73 0 0 1 -13.67,2.84 h -1.09" class="cls-1"/><path id="path24" d="m 314.41,90.230001 a 49.4,49.4 0 0 1 13.67,2.35 29.7,29.7 0 0 1 -5.95,2.08 30.06,30.06 0 0 1 -7.72,0.79 h -1.08" class="cls-1"/><path id="path26" d="m 280.33,243.89 q 0.28,-33.68 0.58,-67.36 18.62,-52.27 37.29,-104.55 l 2.54,-0.47" class="cls-1"/><path id="path28" d="m 288.68,177.11 -7.77,-0.58" class="cls-1"/><polyline id="polyline30" points="280.33 205.18 269.43 205.18 269.43 178.88 280.89 178.88" class="cls-1"/><polyline id="polyline32" points="282.66 171.61 272.09 168.24 306.37 73.7 316.24 77.37" class="cls-1"/><line id="line34" x1="308.38" x2="298.23" y1="99.42" y2="96.14" class="cls-1"/><line id="line36" x1="300.52" x2="290.36" y1="121.82" y2="118.54" class="cls-1"/><line id="line38" x1="291.96" x2="281.81" y1="146.07" y2="142.79" class="cls-1"/><polyline id="polyline40" points="310.68 24.27 314.66 24.27 321.39 11.87 326.09 8.74 324.14 7.71" class="cls-1"/><polyline id="polyline42" points="229.5 180.6 236.87 180.6 314.5 28.31 310.06 25.46" class="cls-1"/><line id="line44" x1="291.48" x2="296.38" y1="61.25" y2="63.85" class="cls-1"/><line id="line46" x1="272.29" x2="277.4" y1="98.21" y2="101.09" class="cls-1"/><line id="line48" x1="252.86" x2="258.17" y1="135.62" y2="138.82" class="cls-1"/><polyline id="polyline50" points="321.2 69.88 310.68 69.88 326.09 25.46 334.67 25.46" class="cls-1"/><polyline id="polyline52" points="199.37 238.63 207.13 240.4 229.5 195.47 223.57 192.03" class="cls-1"/><path id="path54" d="m 219.34,243.89 v -9.44 a 4.31,4.31 0 0 1 1.09,-3 4.43,4.43 0 0 1 4.54,-1.1 h 55.36" class="cls-1"/><polyline id="polyline56" points="255.51 230.17 263.05 187.22 322.67 25.46 317.05 25.46 208.27 240.4 219.34 242.78" class="cls-3"/><path id="path58" d="m 216.31,206.01 q -8.66,0.69 -17.63,1.17 -4.25,0.22 -8.41,0.39 a 6.43,6.43 0 0 1 -9.4,-0.59 h -2.15 l -2.74,-0.39 -0.78,-1.41 c -0.47,-5.4 -0.77,-11.28 -0.78,-17.57 -0.01,-6.29 0.26,-12.21 0.72,-17.63 a 21,21 0 0 1 2,-0.66 26.34,26.34 0 0 1 4.11,-0.79 50,50 0 0 1 7.43,-0.28" class="cls-2"/><path id="path60" d="m 186.55,169.93 a 22.5,22.5 0 0 1 11.35,-3.36 v 3.36 z" class="cls-2"/><path id="path62" d="m 197.9,168.22 c 4.92,0.24 10.16,0.65 15.65,1.29 4.66,0.55 9.1,1.22 13.3,2 v 10 h 2.21" class="cls-2"/><path id="path64" d="m 175.98,206.59 -3.71,-1.41 a 153.3,153.3 0 0 1 -1,-16.3 149.58,149.58 0 0 1 1,-18.29 l 2.87,-0.61" class="cls-2"/><path id="path66" d="m 223.97,191.26 h -25 a 11.7,11.7 0 0 1 -8.51,-3.65 10.84,10.84 0 0 1 8.91,-3.91 h 28.52" class="cls-2"/><line id="line68" x1="180.87" x2="181.27" y1="206.98" y2="168.53" class="cls-3"/><line id="line70" x1="202.21" x2="203.37" y1="206.98" y2="191.26" class="cls-3"/><line id="line72" x1="203.08" x2="202.5" y1="183.7" y2="168.53" class="cls-3"/><line id="line74" x1="181.07" x2="195.36" y1="191.26" y2="191.26" class="cls-3"/><line id="line76" x1="181.11" x2="197.9" y1="183.7" y2="183.68" class="cls-3"/><path id="path78" d="m 290.2,305.04 v 66.78 l 50.87,167.74 14.87,8.87 h -5.48 L 319.94,539.56 200.42,309.47 a 32.83,32.83 0 0 0 -6,-2.7 33.45,33.45 0 0 0 -12,-1.73 z" class="cls-2"/><path id="path80" d="m 290.2,346.51 a 30.06,30.06 0 0 1 7.72,0.79 29.7,29.7 0 0 1 5.95,2.08 49.4,49.4 0 0 1 -13.67,2.35" class="cls-1"/><path id="path82" d="m 299.35,403.77 a 48.85,48.85 0 0 0 7.41,-0.78 51,51 0 0 0 6.26,-1.56 29.05,29.05 0 0 0 -5.95,-2.09 29.56,29.56 0 0 0 -7.72,-0.78 h -1.08" class="cls-1"/><path id="path84" d="m 315.89,458.7 a 49.4,49.4 0 0 0 13.67,-2.36 29.7,29.7 0 0 0 -5.95,-2.08 30.06,30.06 0 0 0 -7.72,-0.79 h -1.08" class="cls-1"/><path id="path86" d="m 281.81,305.04 q 0.3,33.68 0.58,67.36 l 37.25,104.55 2.55,0.47" class="cls-1"/><path id="path88" d="m 290.2,371.82 -7.77,0.58" class="cls-1"/><polyline id="polyline90" points="281.81 343.75 270.91 343.75 270.91 370.04 282.37 370.04" class="cls-1"/><polyline id="polyline92" points="284.14 377.31 273.57 380.69 307.85 475.23 317.72 471.56" class="cls-1"/><line id="line94" x1="309.86" x2="299.71" y1="449.51" y2="452.78" class="cls-1"/><line id="line96" x1="302" x2="291.85" y1="427.1" y2="430.38" class="cls-1"/><line id="line98" x1="293.45" x2="283.29" y1="402.86" y2="406.13" class="cls-1"/><polyline id="polyline100" points="312.16 524.65 316.14 524.65 322.87 537.05 327.57 540.18 325.62 541.22" class="cls-1"/><polyline id="polyline102" points="230.99 368.33 238.35 368.33 315.99 520.62 311.54 523.46" class="cls-1"/><line id="line104" x1="292.96" x2="297.87" y1="487.67" y2="485.07" class="cls-1"/><line id="line106" x1="273.77" x2="278.89" y1="450.72" y2="447.84" class="cls-1"/><line id="line108" x1="254.34" x2="259.65" y1="413.31" y2="410.1" class="cls-1"/><polyline id="polyline110" points="322.68 479.04 312.16 479.04 327.57 523.46 336.15 523.46" class="cls-1"/><polyline id="polyline112" points="200.85 310.3 208.61 308.53 230.99 353.45 225.05 356.89" class="cls-1"/><path id="path114" d="m 220.82,305.04 v 9.44 a 4.33,4.33 0 0 0 1.1,3 4.44,4.44 0 0 0 4.54,1.1 h 55.35" class="cls-1"/><polyline id="polyline116" points="257 318.76 264.53 361.71 324.16 523.46 318.53 523.46 209.75 308.53 220.82 306.14" class="cls-3"/><path id="path118" d="m 177.47,342.34 a 148.82,148.82 0 0 0 -0.85,36.61" class="cls-2"/><path id="path120" d="m 199.38,380.71 c 4.93,-0.24 10.16,-0.65 15.65,-1.29 4.67,-0.55 9.11,-1.22 13.3,-2 v -10 h 2.22" class="cls-2"/><path id="path122" d="m 225.45,357.67 h -25 a 11.8,11.8 0 0 0 -5.18,1.2 11.62,11.62 0 0 0 -3.33,2.45 10.84,10.84 0 0 0 8.91,3.91 h 28.53" class="cls-2"/><line id="line124" x1="182.36" x2="182.75" y1="341.95" y2="380.39" class="cls-3"/><line id="line126" x1="203.69" x2="204.86" y1="341.95" y2="357.67" class="cls-3"/><line id="line128" x1="204.56" x2="203.98" y1="365.23" y2="380.39" class="cls-3"/><line id="line130" x1="182.55" x2="196.84" y1="357.67" y2="357.67" class="cls-3"/><line id="line132" x1="182.59" x2="199.38" y1="365.23" y2="365.24" class="cls-3"/><path id="path134" d="m 217.79,379.15 q -8.59,0.69 -17.59,1.19 -4.24,0.22 -8.41,0.39 a 6.41,6.41 0 0 1 -9.39,-0.58 h -2.2 l -2.73,-0.39 -0.79,-1.41" class="cls-2"/><path id="path136" d="m 176.47,342.78 c 0.49,-0.19 1.18,-0.43 2,-0.67 a 26.76,26.76 0 0 1 4.1,-0.78 50.15,50.15 0 0 1 7.44,-0.28" class="cls-2"/><path id="path138" d="m 187.2,342.7 a 22.59,22.59 0 0 1 5.1,-2.33 22.16,22.16 0 0 1 6.25,-1 v 3.36 z" class="cls-2"/><line id="line140" x1="217.68" x2="198.55" y1="342.7" y2="341.35" class="cls-2"/><path id="path142" d="m 177.47,379.73 -5.27,-1.75 c -0.47,-5.24 -0.77,-10.94 -0.78,-17.06 0,-6.39 0.29,-12.33 0.78,-17.77 l 5.32,-0.81" class="cls-2"/><path id="path144" d="m 56.300002,248.72 v 50.79 c 3.93,0.42 9.49,0.94 16.17,1.35 4.32,0.27 7.86,0.41 11.37,0.53 13.440005,0.45 27.930008,0.58 35.380008,0.63 h 56.35 245.37 c 9.29,-0.65 19.17,-1.65 29.54,-3.11 9.17,-1.3 17.86,-2.83 26,-4.5 v -40.28 c -8.41,-1.68 -17.36,-3.21 -26.8,-4.5 -9.79,-1.34 -19.14,-2.28 -28,-2.93 h -302.05 c -10.43,-0.23 -21.400003,-0.2 -32.860008,0.19 -10.57,0.36 -20.79,1 -30.47,1.83 z" class="cls-2"/><path id="path146" d="m 423.29,305.01 a 402.76,402.76 0 0 0 42,-5.29 402.75,402.75 0 0 0 42,-9.91 c 4.41,-0.56 11.1,-1.34 19.3,-2.09 10.64,-1 13.91,-1 18.78,-1.57 a 99.51,99.51 0 0 0 28.44,-8.06" class="cls-2"/><polyline id="polyline148" points="423.29 305.01 313.02 305.01 78.16 305.01" class="cls-2"/><path id="path150" d="m 573.81,270.71 a 99.26,99.26 0 0 0 -28.44,-8.07 c -4.87,-0.59 -8.14,-0.59 -18.78,-1.56 -8.2,-0.75 -14.89,-1.54 -19.3,-2.09 a 402.72,402.72 0 0 0 -84,-15.21 L 78.2,243.92" class="cls-2"/><rect id="rect152" width="2.35" height="7.38" x="572.5" y="270.71" class="cls-2"/><path id="path154" d="m 492.02,293.96 a 17.28,17.28 0 0 1 5.35,3.41 17.46,17.46 0 0 1 4.18,6.26 c 1.61,3.94 11.61,19.84 39.13,60.26 a 11.48,11.48 0 0 0 8.87,5.48 h 14.35 l -18.53,-83.22" class="cls-2"/><line id="line156" x1="556.59" x2="527.96" y1="369.37" y2="287.59" class="cls-2"/><polyline id="polyline158" points="505.63 290.29 523.98 323.46 532.85 320.33 520.8 288.27" class="cls-2"/><path id="path160" d="m 492.02,254.34 a 17.28,17.28 0 0 0 5.35,-3.41 17.55,17.55 0 0 0 4.18,-6.26 c 1.61,-3.94 11.61,-19.84 39.13,-60.27 a 11.67,11.67 0 0 1 4.43,-4.17 11.45,11.45 0 0 1 4.44,-1.3 h 14.35 l -18.53,83.21" class="cls-2"/><line id="line162" x1="556.59" x2="527.96" y1="178.96" y2="260.74" class="cls-2"/><polyline id="polyline164" points="505.63 258.05 523.98 224.88 532.85 228.01 520.8 260.06" class="cls-2"/><path id="path166" d="M 37.62,268.34" class="cls-2"/><path id="path168" d="m 13.2,287.26 3.32,1.7 a 119.34,119.34 0 0 0 61.68,16.05" class="cls-2"/><line id="line170" x1="14.32" x2="14.32" y1="261.28" y2="287.61" class="cls-4"/><path id="path172" d="m 78.2,243.93 a 119.34,119.34 0 0 0 -61.62,16.05 l -2.22,1.3" class="cls-2"/><path id="path174" d="m 14.32,287.79 a 33.9,33.9 0 0 1 -6.8599999,-4.15 c -3.47,-2.71 -7.10999999,-5.56 -6.99999999,-9 0.1,-2.15 1.70999999,-3.71 4.91999999,-6.72 A 48.31,48.31 0 0 1 14.28,261.32" class="cls-2"/><g id="g212"><polygon id="polygon176" points="101.64 248.72 109.01 248.72 109.01 255.25 101.64 255.25 100.29 254.24 100.29 249.32" class="cls-4"/><polyline id="polyline178" points="109.01 250.21 107.22 250.21 107.22 253.79 109.01 253.79" class="cls-4"/><line id="line180" x1="106.44" x2="106.44" y1="248.72" y2="255.24" class="cls-4"/><polygon id="polygon182" points="101.64 255.92 109.01 255.92 109.01 262.44 101.64 262.44 100.29 261.44 100.29 256.52" class="cls-4"/><polyline id="polyline184" points="109.01 257.41 107.22 257.41 107.22 260.99 109.01 260.99" class="cls-4"/><line id="line186" x1="106.44" x2="106.44" y1="255.92" y2="262.44" class="cls-4"/><polygon id="polygon188" points="101.64 263.11 109.01 263.11 109.01 269.64 101.64 269.64 100.29 268.63 100.29 263.72" class="cls-4"/><polyline id="polyline190" points="109.01 264.61 107.22 264.61 107.22 268.19 109.01 268.19" class="cls-4"/><line id="line192" x1="106.44" x2="106.44" y1="263.11" y2="269.64" class="cls-4"/><polygon id="polygon194" points="101.64 279.9 109.01 279.9 109.01 286.42 101.64 286.42 100.29 285.42 100.29 280.5" class="cls-4"/><polyline id="polyline196" points="109.01 281.39 107.22 281.39 107.22 284.97 109.01 284.97" class="cls-4"/><line id="line198" x1="106.44" x2="106.44" y1="279.9" y2="286.42" class="cls-4"/><polygon id="polygon200" points="101.64 287.1 109.01 287.1 109.01 293.62 101.64 293.62 100.29 292.62 100.29 287.7" class="cls-4"/><polyline id="polyline202" points="109.01 288.59 107.22 288.59 107.22 292.17 109.01 292.17" class="cls-4"/><line id="line204" x1="106.44" x2="106.44" y1="287.1" y2="293.62" class="cls-4"/><polygon id="polygon206" points="101.64 294.29 109.01 294.29 109.01 300.82 101.64 300.82 100.29 299.81 100.29 294.89" class="cls-4"/><polyline id="polyline208" points="109.01 295.79 107.22 295.79 107.22 299.37 109.01 299.37" class="cls-4"/><line id="line210" x1="106.44" x2="106.44" y1="294.29" y2="300.82" class="cls-4"/></g><polygon id="polygon214" points="113.93 248.72 121.31 248.72 121.31 255.25 113.93 255.25 112.59 254.24 112.59 249.32" class="cls-4"/><polyline id="polyline216" points="121.31 250.21 119.52 250.21 119.52 253.79 121.31 253.79" class="cls-4"/><line id="line218" x1="118.74" x2="118.74" y1="248.72" y2="255.24" class="cls-4"/><polygon id="polygon220" points="113.93 255.92 121.31 255.92 121.31 262.44 113.93 262.44 112.59 261.44 112.59 256.52" class="cls-4"/><polyline id="polyline222" points="121.31 257.41 119.52 257.41 119.52 260.99 121.31 260.99" class="cls-4"/><line id="line224" x1="118.74" x2="118.74" y1="255.92" y2="262.44" class="cls-4"/><polygon id="polygon226" points="113.93 263.11 121.31 263.11 121.31 269.64 113.93 269.64 112.59 268.63 112.59 263.72" class="cls-4"/><polyline id="polyline228" points="121.31 264.61 119.52 264.61 119.52 268.19 121.31 268.19" class="cls-4"/><line id="line230" x1="118.74" x2="118.74" y1="263.11" y2="269.64" class="cls-4"/><polygon id="polygon232" points="113.93 279.9 121.31 279.9 121.31 286.42 113.93 286.42 112.59 285.42 112.59 280.5" class="cls-4"/><polyline id="polyline234" points="121.31 281.39 119.52 281.39 119.52 284.97 121.31 284.97" class="cls-4"/><line id="line236" x1="118.74" x2="118.74" y1="279.9" y2="286.42" class="cls-4"/><polygon id="polygon238" points="113.93 287.1 121.31 287.1 121.31 293.62 113.93 293.62 112.59 292.62 112.59 287.7" class="cls-4"/><polyline id="polyline240" points="121.31 288.59 119.52 288.59 119.52 292.17 121.31 292.17" class="cls-4"/><line id="line242" x1="118.74" x2="118.74" y1="287.1" y2="293.62" class="cls-4"/><polygon id="polygon244" points="113.93 294.29 121.31 294.29 121.31 300.82 113.93 300.82 112.59 299.81 112.59 294.89" class="cls-4"/><polyline id="polyline246" points="121.31 295.79 119.52 295.79 119.52 299.37 121.31 299.37" class="cls-4"/><line id="line248" x1="118.74" x2="118.74" y1="294.29" y2="300.82" class="cls-4"/><polygon id="polygon250" points="126.34 248.72 133.72 248.72 133.72 255.25 126.34 255.25 125 254.24 125 249.32" class="cls-4"/><polyline id="polyline252" points="133.72 250.21 131.93 250.21 131.93 253.79 133.72 253.79" class="cls-4"/><line id="line254" x1="131.15" x2="131.15" y1="248.72" y2="255.24" class="cls-4"/><polygon id="polygon256" points="126.34 255.92 133.72 255.92 133.72 262.44 126.34 262.44 125 261.44 125 256.52" class="cls-4"/><polyline id="polyline258" points="133.72 257.41 131.93 257.41 131.93 260.99 133.72 260.99" class="cls-4"/><line id="line260" x1="131.15" x2="131.15" y1="255.92" y2="262.44" class="cls-4"/><polygon id="polygon262" points="126.34 263.11 133.72 263.11 133.72 269.64 126.34 269.64 125 268.63 125 263.72" class="cls-4"/><polyline id="polyline264" points="133.72 264.61 131.93 264.61 131.93 268.19 133.72 268.19" class="cls-4"/><line id="line266" x1="131.15" x2="131.15" y1="263.11" y2="269.64" class="cls-4"/><polygon id="polygon268" points="126.34 279.9 133.72 279.9 133.72 286.42 126.34 286.42 125 285.42 125 280.5" class="cls-4"/><polyline id="polyline270" points="133.72 281.39 131.93 281.39 131.93 284.97 133.72 284.97" class="cls-4"/><line id="line272" x1="131.15" x2="131.15" y1="279.9" y2="286.42" class="cls-4"/><polygon id="polygon274" points="126.34 287.1 133.72 287.1 133.72 293.62 126.34 293.62 125 292.62 125 287.7" class="cls-4"/><polyline id="polyline276" points="133.72 288.59 131.93 288.59 131.93 292.17 133.72 292.17" class="cls-4"/><line id="line278" x1="131.15" x2="131.15" y1="287.1" y2="293.62" class="cls-4"/><polygon id="polygon280" points="126.34 294.29 133.72 294.29 133.72 300.82 126.34 300.82 125 299.81 125 294.89" class="cls-4"/><polyline id="polyline282" points="133.72 295.79 131.93 295.79 131.93 299.37 133.72 299.37" class="cls-4"/><line id="line284" x1="131.15" x2="131.15" y1="294.29" y2="300.82" class="cls-4"/><polygon id="polygon286" points="138.75 248.72 146.13 248.72 146.13 255.25 138.75 255.25 137.41 254.24 137.41 249.32" class="cls-4"/><polyline id="polyline288" points="146.13 250.21 144.34 250.21 144.34 253.79 146.13 253.79" class="cls-4"/><line id="line290" x1="143.56" x2="143.56" y1="248.72" y2="255.24" class="cls-4"/><polygon id="polygon292" points="138.75 255.92 146.13 255.92 146.13 262.44 138.75 262.44 137.41 261.44 137.41 256.52" class="cls-4"/><polyline id="polyline294" points="146.13 257.41 144.34 257.41 144.34 260.99 146.13 260.99" class="cls-4"/><line id="line296" x1="143.56" x2="143.56" y1="255.92" y2="262.44" class="cls-4"/><polygon id="polygon298" points="138.75 263.11 146.13 263.11 146.13 269.64 138.75 269.64 137.41 268.63 137.41 263.72" class="cls-4"/><polyline id="polyline300" points="146.13 264.61 144.34 264.61 144.34 268.19 146.13 268.19" class="cls-4"/><line id="line302" x1="143.56" x2="143.56" y1="263.11" y2="269.64" class="cls-4"/><polygon id="polygon304" points="138.75 279.9 146.13 279.9 146.13 286.42 138.75 286.42 137.41 285.42 137.41 280.5" class="cls-4"/><polyline id="polyline306" points="146.13 281.39 144.34 281.39 144.34 284.97 146.13 284.97" class="cls-4"/><line id="line308" x1="143.56" x2="143.56" y1="279.9" y2="286.42" class="cls-4"/><polygon id="polygon310" points="138.75 287.1 146.13 287.1 146.13 293.62 138.75 293.62 137.41 292.62 137.41 287.7" class="cls-4"/><polyline id="polyline312" points="146.13 288.59 144.34 288.59 144.34 292.17 146.13 292.17" class="cls-4"/><line id="line314" x1="143.56" x2="143.56" y1="287.1" y2="293.62" class="cls-4"/><polygon id="polygon316" points="138.75 294.29 146.13 294.29 146.13 300.82 138.75 300.82 137.41 299.81 137.41 294.89" class="cls-4"/><polyline id="polyline318" points="146.13 295.79 144.34 295.79 144.34 299.37 146.13 299.37" class="cls-4"/><line id="line320" x1="143.56" x2="143.56" y1="294.29" y2="300.82" class="cls-4"/><polygon id="polygon322" points="150.83 248.72 158.21 248.72 158.21 255.25 150.83 255.25 149.49 254.24 149.49 249.32" class="cls-4"/><polyline id="polyline324" points="158.21 250.21 156.42 250.21 156.42 253.79 158.21 253.79" class="cls-4"/><line id="line326" x1="155.64" x2="155.64" y1="248.72" y2="255.24" class="cls-4"/><polygon id="polygon328" points="150.83 255.92 158.21 255.92 158.21 262.44 150.83 262.44 149.49 261.44 149.49 256.52" class="cls-4"/><polyline id="polyline330" points="158.21 257.41 156.42 257.41 156.42 260.99 158.21 260.99" class="cls-4"/><line id="line332" x1="155.64" x2="155.64" y1="255.92" y2="262.44" class="cls-4"/><polygon id="polygon334" points="150.83 263.11 158.21 263.11 158.21 269.64 150.83 269.64 149.49 268.63 149.49 263.72" class="cls-4"/><polyline id="polyline336" points="158.21 264.61 156.42 264.61 156.42 268.19 158.21 268.19" class="cls-4"/><line id="line338" x1="155.64" x2="155.64" y1="263.11" y2="269.64" class="cls-4"/><polygon id="polygon340" points="150.83 279.9 158.21 279.9 158.21 286.42 150.83 286.42 149.49 285.42 149.49 280.5" class="cls-4"/><polyline id="polyline342" points="158.21 281.39 156.42 281.39 156.42 284.97 158.21 284.97" class="cls-4"/><line id="line344" x1="155.64" x2="155.64" y1="279.9" y2="286.42" class="cls-4"/><polygon id="polygon346" points="150.83 287.1 158.21 287.1 158.21 293.62 150.83 293.62 149.49 292.62 149.49 287.7" class="cls-4"/><polyline id="polyline348" points="158.21 288.59 156.42 288.59 156.42 292.17 158.21 292.17" class="cls-4"/><line id="line350" x1="155.64" x2="155.64" y1="287.1" y2="293.62" class="cls-4"/><polygon id="polygon352" points="150.83 294.29 158.21 294.29 158.21 300.82 150.83 300.82 149.49 299.81 149.49 294.89" class="cls-4"/><polyline id="polyline354" points="158.21 295.79 156.42 295.79 156.42 299.37 158.21 299.37" class="cls-4"/><line id="line356" x1="155.64" x2="155.64" y1="294.29" y2="300.82" class="cls-4"/><polygon id="polygon358" points="163.13 248.72 170.5 248.72 170.5 255.25 163.13 255.25 161.78 254.24 161.78 249.32" class="cls-4"/><polyline id="polyline360" points="170.5 250.21 168.72 250.21 168.72 253.79 170.5 253.79" class="cls-4"/><line id="line362" x1="167.93" x2="167.93" y1="248.72" y2="255.24" class="cls-4"/><polygon id="polygon364" points="163.13 255.92 170.5 255.92 170.5 262.44 163.13 262.44 161.78 261.44 161.78 256.52" class="cls-4"/><polyline id="polyline366" points="170.5 257.41 168.72 257.41 168.72 260.99 170.5 260.99" class="cls-4"/><line id="line368" x1="167.93" x2="167.93" y1="255.92" y2="262.44" class="cls-4"/><polygon id="polygon370" points="163.13 263.11 170.5 263.11 170.5 269.64 163.13 269.64 161.78 268.63 161.78 263.72" class="cls-4"/><polyline id="polyline372" points="170.5 264.61 168.72 264.61 168.72 268.19 170.5 268.19" class="cls-4"/><line id="line374" x1="167.93" x2="167.93" y1="263.11" y2="269.64" class="cls-4"/><polygon id="polygon376" points="163.13 279.9 170.5 279.9 170.5 286.42 163.13 286.42 161.78 285.42 161.78 280.5" class="cls-4"/><polyline id="polyline378" points="170.5 281.39 168.72 281.39 168.72 284.97 170.5 284.97" class="cls-4"/><line id="line380" x1="167.93" x2="167.93" y1="279.9" y2="286.42" class="cls-4"/><polygon id="polygon382" points="163.13 287.1 170.5 287.1 170.5 293.62 163.13 293.62 161.78 292.62 161.78 287.7" class="cls-4"/><polyline id="polyline384" points="170.5 288.59 168.72 288.59 168.72 292.17 170.5 292.17" class="cls-4"/><line id="line386" x1="167.93" x2="167.93" y1="287.1" y2="293.62" class="cls-4"/><polygon id="polygon388" points="163.13 294.29 170.5 294.29 170.5 300.82 163.13 300.82 161.78 299.81 161.78 294.89" class="cls-4"/><polyline id="polyline390" points="170.5 295.79 168.72 295.79 168.72 299.37 170.5 299.37" class="cls-4"/><line id="line392" x1="167.93" x2="167.93" y1="294.29" y2="300.82" class="cls-4"/><polygon id="polygon394" points="175.04 248.72 182.42 248.72 182.42 255.25 175.04 255.25 173.7 254.24 173.7 249.32" class="cls-4"/><polyline id="polyline396" points="182.42 250.21 180.63 250.21 180.63 253.79 182.42 253.79" class="cls-4"/><line id="line398" x1="179.85" x2="179.85" y1="248.72" y2="255.24" class="cls-4"/><polygon id="polygon400" points="175.04 255.92 182.42 255.92 182.42 262.44 175.04 262.44 173.7 261.44 173.7 256.52" class="cls-4"/><polyline id="polyline402" points="182.42 257.41 180.63 257.41 180.63 260.99 182.42 260.99" class="cls-4"/><line id="line404" x1="179.85" x2="179.85" y1="255.92" y2="262.44" class="cls-4"/><polygon id="polygon406" points="175.04 263.11 182.42 263.11 182.42 269.64 175.04 269.64 173.7 268.63 173.7 263.72" class="cls-4"/><polyline id="polyline408" points="182.42 264.61 180.63 264.61 180.63 268.19 182.42 268.19" class="cls-4"/><line id="line410" x1="179.85" x2="179.85" y1="263.11" y2="269.64" class="cls-4"/><polygon id="polygon412" points="175.04 279.9 182.42 279.9 182.42 286.42 175.04 286.42 173.7 285.42 173.7 280.5" class="cls-4"/><polyline id="polyline414" points="182.42 281.39 180.63 281.39 180.63 284.97 182.42 284.97" class="cls-4"/><line id="line416" x1="179.85" x2="179.85" y1="279.9" y2="286.42" class="cls-4"/><polygon id="polygon418" points="175.04 287.1 182.42 287.1 182.42 293.62 175.04 293.62 173.7 292.62 173.7 287.7" class="cls-4"/><polyline id="polyline420" points="182.42 288.59 180.63 288.59 180.63 292.17 182.42 292.17" class="cls-4"/><line id="line422" x1="179.85" x2="179.85" y1="287.1" y2="293.62" class="cls-4"/><polygon id="polygon424" points="175.04 294.29 182.42 294.29 182.42 300.82 175.04 300.82 173.7 299.81 173.7 294.89" class="cls-4"/><polyline id="polyline426" points="182.42 295.79 180.63 295.79 180.63 299.37 182.42 299.37" class="cls-4"/><line id="line428" x1="179.85" x2="179.85" y1="294.29" y2="300.82" class="cls-4"/><polygon id="polygon430" points="187.05 248.72 194.43 248.72 194.43 255.25 187.05 255.25 185.71 254.24 185.71 249.32" class="cls-4"/><polyline id="polyline432" points="194.43 250.21 192.64 250.21 192.64 253.79 194.43 253.79" class="cls-4"/><line id="line434" x1="191.86" x2="191.86" y1="248.72" y2="255.24" class="cls-4"/><polygon id="polygon436" points="187.05 255.92 194.43 255.92 194.43 262.44 187.05 262.44 185.71 261.44 185.71 256.52" class="cls-4"/><polyline id="polyline438" points="194.43 257.41 192.64 257.41 192.64 260.99 194.43 260.99" class="cls-4"/><line id="line440" x1="191.86" x2="191.86" y1="255.92" y2="262.44" class="cls-4"/><polygon id="polygon442" points="187.05 263.11 194.43 263.11 194.43 269.64 187.05 269.64 185.71 268.63 185.71 263.72" class="cls-4"/><polyline id="polyline444" points="194.43 264.61 192.64 264.61 192.64 268.19 194.43 268.19" class="cls-4"/><line id="line446" x1="191.86" x2="191.86" y1="263.11" y2="269.64" class="cls-4"/><polygon id="polygon448" points="187.05 279.9 194.43 279.9 194.43 286.42 187.05 286.42 185.71 285.42 185.71 280.5" class="cls-4"/><polyline id="polyline450" points="194.43 281.39 192.64 281.39 192.64 284.97 194.43 284.97" class="cls-4"/><line id="line452" x1="191.86" x2="191.86" y1="279.9" y2="286.42" class="cls-4"/><polygon id="polygon454" points="187.05 287.1 194.43 287.1 194.43 293.62 187.05 293.62 185.71 292.62 185.71 287.7" class="cls-4"/><polyline id="polyline456" points="194.43 288.59 192.64 288.59 192.64 292.17 194.43 292.17" class="cls-4"/><line id="line458" x1="191.86" x2="191.86" y1="287.1" y2="293.62" class="cls-4"/><polygon id="polygon460" points="187.05 294.29 194.43 294.29 194.43 300.82 187.05 300.82 185.71 299.81 185.71 294.89" class="cls-4"/><polyline id="polyline462" points="194.43 295.79 192.64 295.79 192.64 299.37 194.43 299.37" class="cls-4"/><line id="line464" x1="191.86" x2="191.86" y1="294.29" y2="300.82" class="cls-4"/><polygon id="polygon466" points="199.35 248.72 206.73 248.72 206.73 255.25 199.35 255.25 198.01 254.24 198.01 249.32" class="cls-4"/><polyline id="polyline468" points="206.73 250.21 204.94 250.21 204.94 253.79 206.73 253.79" class="cls-4"/><line id="line470" x1="204.16" x2="204.16" y1="248.72" y2="255.24" class="cls-4"/><polygon id="polygon472" points="199.35 255.92 206.73 255.92 206.73 262.44 199.35 262.44 198.01 261.44 198.01 256.52" class="cls-4"/><polyline id="polyline474" points="206.73 257.41 204.94 257.41 204.94 260.99 206.73 260.99" class="cls-4"/><line id="line476" x1="204.16" x2="204.16" y1="255.92" y2="262.44" class="cls-4"/><polygon id="polygon478" points="199.35 263.11 206.73 263.11 206.73 269.64 199.35 269.64 198.01 268.63 198.01 263.72" class="cls-4"/><polyline id="polyline480" points="206.73 264.61 204.94 264.61 204.94 268.19 206.73 268.19" class="cls-4"/><line id="line482" x1="204.16" x2="204.16" y1="263.11" y2="269.64" class="cls-4"/><polygon id="polygon484" points="199.35 279.9 206.73 279.9 206.73 286.42 199.35 286.42 198.01 285.42 198.01 280.5" class="cls-4"/><polyline id="polyline486" points="206.73 281.39 204.94 281.39 204.94 284.97 206.73 284.97" class="cls-4"/><line id="line488" x1="204.16" x2="204.16" y1="279.9" y2="286.42" class="cls-4"/><polygon id="polygon490" points="199.35 287.1 206.73 287.1 206.73 293.62 199.35 293.62 198.01 292.62 198.01 287.7" class="cls-4"/><polyline id="polyline492" points="206.73 288.59 204.94 288.59 204.94 292.17 206.73 292.17" class="cls-4"/><line id="line494" x1="204.16" x2="204.16" y1="287.1" y2="293.62" class="cls-4"/><polygon id="polygon496" points="199.35 294.29 206.73 294.29 206.73 300.82 199.35 300.82 198.01 299.81 198.01 294.89" class="cls-4"/><polyline id="polyline498" points="206.73 295.79 204.94 295.79 204.94 299.37 206.73 299.37" class="cls-4"/><line id="line500" x1="204.16" x2="204.16" y1="294.29" y2="300.82" class="cls-4"/><polygon id="polygon502" points="211.42 248.72 218.8 248.72 218.8 255.25 211.42 255.25 210.08 254.24 210.08 249.32" class="cls-4"/><polyline id="polyline504" points="218.8 250.21 217.01 250.21 217.01 253.79 218.8 253.79" class="cls-4"/><line id="line506" x1="216.23" x2="216.23" y1="248.72" y2="255.24" class="cls-4"/><polygon id="polygon508" points="211.42 255.92 218.8 255.92 218.8 262.44 211.42 262.44 210.08 261.44 210.08 256.52" class="cls-4"/><polyline id="polyline510" points="218.8 257.41 217.01 257.41 217.01 260.99 218.8 260.99" class="cls-4"/><line id="line512" x1="216.23" x2="216.23" y1="255.92" y2="262.44" class="cls-4"/><polygon id="polygon514" points="211.42 263.11 218.8 263.11 218.8 269.64 211.42 269.64 210.08 268.63 210.08 263.72" class="cls-4"/><polyline id="polyline516" points="218.8 264.61 217.01 264.61 217.01 268.19 218.8 268.19" class="cls-4"/><line id="line518" x1="216.23" x2="216.23" y1="263.11" y2="269.64" class="cls-4"/><polygon id="polygon520" points="211.42 279.9 218.8 279.9 218.8 286.42 211.42 286.42 210.08 285.42 210.08 280.5" class="cls-4"/><polyline id="polyline522" points="218.8 281.39 217.01 281.39 217.01 284.97 218.8 284.97" class="cls-4"/><line id="line524" x1="216.23" x2="216.23" y1="279.9" y2="286.42" class="cls-4"/><polygon id="polygon526" points="211.42 287.1 218.8 287.1 218.8 293.62 211.42 293.62 210.08 292.62 210.08 287.7" class="cls-4"/><polyline id="polyline528" points="218.8 288.59 217.01 288.59 217.01 292.17 218.8 292.17" class="cls-4"/><line id="line530" x1="216.23" x2="216.23" y1="287.1" y2="293.62" class="cls-4"/><polygon id="polygon532" points="211.42 294.29 218.8 294.29 218.8 300.82 211.42 300.82 210.08 299.81 210.08 294.89" class="cls-4"/><polyline id="polyline534" points="218.8 295.79 217.01 295.79 217.01 299.37 218.8 299.37" class="cls-4"/><line id="line536" x1="216.23" x2="216.23" y1="294.29" y2="300.82" class="cls-4"/><polygon id="polygon538" points="225.29 248.72 232.67 248.72 232.67 255.25 225.29 255.25 223.95 254.24 223.95 249.32" class="cls-4"/><polyline id="polyline540" points="232.67 250.21 230.88 250.21 230.88 253.79 232.67 253.79" class="cls-4"/><line id="line542" x1="230.09" x2="230.09" y1="248.72" y2="255.24" class="cls-4"/><polygon id="polygon544" points="225.29 255.92 232.67 255.92 232.67 262.44 225.29 262.44 223.95 261.44 223.95 256.52" class="cls-4"/><polyline id="polyline546" points="232.67 257.41 230.88 257.41 230.88 260.99 232.67 260.99" class="cls-4"/><line id="line548" x1="230.09" x2="230.09" y1="255.92" y2="262.44" class="cls-4"/><polygon id="polygon550" points="225.29 263.11 232.67 263.11 232.67 269.64 225.29 269.64 223.95 268.63 223.95 263.72" class="cls-4"/><polyline id="polyline552" points="232.67 264.61 230.88 264.61 230.88 268.19 232.67 268.19" class="cls-4"/><line id="line554" x1="230.09" x2="230.09" y1="263.11" y2="269.64" class="cls-4"/><polygon id="polygon556" points="225.29 279.9 232.67 279.9 232.67 286.42 225.29 286.42 223.95 285.42 223.95 280.5" class="cls-4"/><polyline id="polyline558" points="232.67 281.39 230.88 281.39 230.88 284.97 232.67 284.97" class="cls-4"/><line id="line560" x1="230.09" x2="230.09" y1="279.9" y2="286.42" class="cls-4"/><polygon id="polygon562" points="225.29 287.1 232.67 287.1 232.67 293.62 225.29 293.62 223.95 292.62 223.95 287.7" class="cls-4"/><polyline id="polyline564" points="232.67 288.59 230.88 288.59 230.88 292.17 232.67 292.17" class="cls-4"/><line id="line566" x1="230.09" x2="230.09" y1="287.1" y2="293.62" class="cls-4"/><polygon id="polygon568" points="225.29 294.29 232.67 294.29 232.67 300.82 225.29 300.82 223.95 299.81 223.95 294.89" class="cls-4"/><polyline id="polyline570" points="232.67 295.79 230.88 295.79 230.88 299.37 232.67 299.37" class="cls-4"/><line id="line572" x1="230.09" x2="230.09" y1="294.29" y2="300.82" class="cls-4"/><polygon id="polygon574" points="238.7 248.72 246.08 248.72 246.08 255.25 238.7 255.25 237.36 254.24 237.36 249.32" class="cls-4"/><polyline id="polyline576" points="246.08 250.21 244.29 250.21 244.29 253.79 246.08 253.79" class="cls-4"/><line id="line578" x1="243.51" x2="243.51" y1="248.72" y2="255.24" class="cls-4"/><polygon id="polygon580" points="238.7 255.92 246.08 255.92 246.08 262.44 238.7 262.44 237.36 261.44 237.36 256.52" class="cls-4"/><polyline id="polyline582" points="246.08 257.41 244.29 257.41 244.29 260.99 246.08 260.99" class="cls-4"/><line id="line584" x1="243.51" x2="243.51" y1="255.92" y2="262.44" class="cls-4"/><polygon id="polygon586" points="238.7 263.11 246.08 263.11 246.08 269.64 238.7 269.64 237.36 268.63 237.36 263.72" class="cls-4"/><polyline id="polyline588" points="246.08 264.61 244.29 264.61 244.29 268.19 246.08 268.19" class="cls-4"/><line id="line590" x1="243.51" x2="243.51" y1="263.11" y2="269.64" class="cls-4"/><polygon id="polygon592" points="238.7 279.9 246.08 279.9 246.08 286.42 238.7 286.42 237.36 285.42 237.36 280.5" class="cls-4"/><polyline id="polyline594" points="246.08 281.39 244.29 281.39 244.29 284.97 246.08 284.97" class="cls-4"/><line id="line596" x1="243.51" x2="243.51" y1="279.9" y2="286.42" class="cls-4"/><polygon id="polygon598" points="238.7 287.1 246.08 287.1 246.08 293.62 238.7 293.62 237.36 292.62 237.36 287.7" class="cls-4"/><polyline id="polyline600" points="246.08 288.59 244.29 288.59 244.29 292.17 246.08 292.17" class="cls-4"/><line id="line602" x1="243.51" x2="243.51" y1="287.1" y2="293.62" class="cls-4"/><polygon id="polygon604" points="238.7 294.29 246.08 294.29 246.08 300.82 238.7 300.82 237.36 299.81 237.36 294.89" class="cls-4"/><polyline id="polyline606" points="246.08 295.79 244.29 295.79 244.29 299.37 246.08 299.37" class="cls-4"/><line id="line608" x1="243.51" x2="243.51" y1="294.29" y2="300.82" class="cls-4"/><polygon id="polygon610" points="249.66 248.72 257.04 248.72 257.04 255.25 249.66 255.25 248.32 254.24 248.32 249.32" class="cls-4"/><polyline id="polyline612" points="257.04 250.21 255.25 250.21 255.25 253.79 257.04 253.79" class="cls-4"/><line id="line614" x1="254.47" x2="254.47" y1="248.72" y2="255.24" class="cls-4"/><polygon id="polygon616" points="249.66 255.92 257.04 255.92 257.04 262.44 249.66 262.44 248.32 261.44 248.32 256.52" class="cls-4"/><polyline id="polyline618" points="257.04 257.41 255.25 257.41 255.25 260.99 257.04 260.99" class="cls-4"/><line id="line620" x1="254.47" x2="254.47" y1="255.92" y2="262.44" class="cls-4"/><polygon id="polygon622" points="249.66 263.11 257.04 263.11 257.04 269.64 249.66 269.64 248.32 268.63 248.32 263.72" class="cls-4"/><polyline id="polyline624" points="257.04 264.61 255.25 264.61 255.25 268.19 257.04 268.19" class="cls-4"/><line id="line626" x1="254.47" x2="254.47" y1="263.11" y2="269.64" class="cls-4"/><polygon id="polygon628" points="249.66 279.9 257.04 279.9 257.04 286.42 249.66 286.42 248.32 285.42 248.32 280.5" class="cls-4"/><polyline id="polyline630" points="257.04 281.39 255.25 281.39 255.25 284.97 257.04 284.97" class="cls-4"/><line id="line632" x1="254.47" x2="254.47" y1="279.9" y2="286.42" class="cls-4"/><polygon id="polygon634" points="249.66 287.1 257.04 287.1 257.04 293.62 249.66 293.62 248.32 292.62 248.32 287.7" class="cls-4"/><polyline id="polyline636" points="257.04 288.59 255.25 288.59 255.25 292.17 257.04 292.17" class="cls-4"/><line id="line638" x1="254.47" x2="254.47" y1="287.1" y2="293.62" class="cls-4"/><polygon id="polygon640" points="249.66 294.29 257.04 294.29 257.04 300.82 249.66 300.82 248.32 299.81 248.32 294.89" class="cls-4"/><polyline id="polyline642" points="257.04 295.79 255.25 295.79 255.25 299.37 257.04 299.37" class="cls-4"/><line id="line644" x1="254.47" x2="254.47" y1="294.29" y2="300.82" class="cls-4"/><polygon id="polygon646" points="260.33 248.72 267.71 248.72 267.71 255.25 260.33 255.25 258.99 254.24 258.99 249.32" class="cls-4"/><polyline id="polyline648" points="267.71 250.21 265.92 250.21 265.92 253.79 267.71 253.79" class="cls-4"/><line id="line650" x1="265.14" x2="265.14" y1="248.72" y2="255.24" class="cls-4"/><polygon id="polygon652" points="260.33 255.92 267.71 255.92 267.71 262.44 260.33 262.44 258.99 261.44 258.99 256.52" class="cls-4"/><polyline id="polyline654" points="267.71 257.41 265.92 257.41 265.92 260.99 267.71 260.99" class="cls-4"/><line id="line656" x1="265.14" x2="265.14" y1="255.92" y2="262.44" class="cls-4"/><polygon id="polygon658" points="260.33 263.11 267.71 263.11 267.71 269.64 260.33 269.64 258.99 268.63 258.99 263.72" class="cls-4"/><polyline id="polyline660" points="267.71 264.61 265.92 264.61 265.92 268.19 267.71 268.19" class="cls-4"/><line id="line662" x1="265.14" x2="265.14" y1="263.11" y2="269.64" class="cls-4"/><polygon id="polygon664" points="260.33 279.9 267.71 279.9 267.71 286.42 260.33 286.42 258.99 285.42 258.99 280.5" class="cls-4"/><polyline id="polyline666" points="267.71 281.39 265.92 281.39 265.92 284.97 267.71 284.97" class="cls-4"/><line id="line668" x1="265.14" x2="265.14" y1="279.9" y2="286.42" class="cls-4"/><polygon id="polygon670" points="260.33 287.1 267.71 287.1 267.71 293.62 260.33 293.62 258.99 292.62 258.99 287.7" class="cls-4"/><polyline id="polyline672" points="267.71 288.59 265.92 288.59 265.92 292.17 267.71 292.17" class="cls-4"/><line id="line674" x1="265.14" x2="265.14" y1="287.1" y2="293.62" class="cls-4"/><polygon id="polygon676" points="260.33 294.29 267.71 294.29 267.71 300.82 260.33 300.82 258.99 299.81 258.99 294.89" class="cls-4"/><polyline id="polyline678" points="267.71 295.79 265.92 295.79 265.92 299.37 267.71 299.37" class="cls-4"/><line id="line680" x1="265.14" x2="265.14" y1="294.29" y2="300.82" class="cls-4"/><polygon id="polygon682" points="270.9 248.72 278.28 248.72 278.28 255.25 270.9 255.25 269.56 254.24 269.56 249.32" class="cls-4"/><polyline id="polyline684" points="278.28 250.21 276.49 250.21 276.49 253.79 278.28 253.79" class="cls-4"/><line id="line686" x1="275.71" x2="275.71" y1="248.72" y2="255.24" class="cls-4"/><polygon id="polygon688" points="270.9 255.92 278.28 255.92 278.28 262.44 270.9 262.44 269.56 261.44 269.56 256.52" class="cls-4"/><polyline id="polyline690" points="278.28 257.41 276.49 257.41 276.49 260.99 278.28 260.99" class="cls-4"/><line id="line692" x1="275.71" x2="275.71" y1="255.92" y2="262.44" class="cls-4"/><polygon id="polygon694" points="270.9 263.11 278.28 263.11 278.28 269.64 270.9 269.64 269.56 268.63 269.56 263.72" class="cls-4"/><polyline id="polyline696" points="278.28 264.61 276.49 264.61 276.49 268.19 278.28 268.19" class="cls-4"/><line id="line698" x1="275.71" x2="275.71" y1="263.11" y2="269.64" class="cls-4"/><polygon id="polygon700" points="270.9 279.9 278.28 279.9 278.28 286.42 270.9 286.42 269.56 285.42 269.56 280.5" class="cls-4"/><polyline id="polyline702" points="278.28 281.39 276.49 281.39 276.49 284.97 278.28 284.97" class="cls-4"/><line id="line704" x1="275.71" x2="275.71" y1="279.9" y2="286.42" class="cls-4"/><polygon id="polygon706" points="270.9 287.1 278.28 287.1 278.28 293.62 270.9 293.62 269.56 292.62 269.56 287.7" class="cls-4"/><polyline id="polyline708" points="278.28 288.59 276.49 288.59 276.49 292.17 278.28 292.17" class="cls-4"/><line id="line710" x1="275.71" x2="275.71" y1="287.1" y2="293.62" class="cls-4"/><polygon id="polygon712" points="270.9 294.29 278.28 294.29 278.28 300.82 270.9 300.82 269.56 299.81 269.56 294.89" class="cls-4"/><polyline id="polyline714" points="278.28 295.79 276.49 295.79 276.49 299.37 278.28 299.37" class="cls-4"/><line id="line716" x1="275.71" x2="275.71" y1="294.29" y2="300.82" class="cls-4"/><polygon id="polygon718" points="282.18 248.72 289.56 248.72 289.56 255.25 282.18 255.25 280.84 254.24 280.84 249.32" class="cls-4"/><polyline id="polyline720" points="289.56 250.21 287.77 250.21 287.77 253.79 289.56 253.79" class="cls-4"/><line id="line722" x1="286.99" x2="286.99" y1="248.72" y2="255.24" class="cls-4"/><polygon id="polygon724" points="282.18 255.92 289.56 255.92 289.56 262.44 282.18 262.44 280.84 261.44 280.84 256.52" class="cls-4"/><polyline id="polyline726" points="289.56 257.41 287.77 257.41 287.77 260.99 289.56 260.99" class="cls-4"/><line id="line728" x1="286.99" x2="286.99" y1="255.92" y2="262.44" class="cls-4"/><polygon id="polygon730" points="282.18 263.11 289.56 263.11 289.56 269.64 282.18 269.64 280.84 268.63 280.84 263.72" class="cls-4"/><polyline id="polyline732" points="289.56 264.61 287.77 264.61 287.77 268.19 289.56 268.19" class="cls-4"/><line id="line734" x1="286.99" x2="286.99" y1="263.11" y2="269.64" class="cls-4"/><polygon id="polygon736" points="282.18 279.9 289.56 279.9 289.56 286.42 282.18 286.42 280.84 285.42 280.84 280.5" class="cls-4"/><polyline id="polyline738" points="289.56 281.39 287.77 281.39 287.77 284.97 289.56 284.97" class="cls-4"/><line id="line740" x1="286.99" x2="286.99" y1="279.9" y2="286.42" class="cls-4"/><polygon id="polygon742" points="282.18 287.1 289.56 287.1 289.56 293.62 282.18 293.62 280.84 292.62 280.84 287.7" class="cls-4"/><polyline id="polyline744" points="289.56 288.59 287.77 288.59 287.77 292.17 289.56 292.17" class="cls-4"/><line id="line746" x1="286.99" x2="286.99" y1="287.1" y2="293.62" class="cls-4"/><polygon id="polygon748" points="282.18 294.29 289.56 294.29 289.56 300.82 282.18 300.82 280.84 299.81 280.84 294.89" class="cls-4"/><polyline id="polyline750" points="289.56 295.79 287.77 295.79 287.77 299.37 289.56 299.37" class="cls-4"/><line id="line752" x1="286.99" x2="286.99" y1="294.29" y2="300.82" class="cls-4"/><polygon id="polygon754" points="293.14 248.72 300.52 248.72 300.52 255.25 293.14 255.25 291.8 254.24 291.8 249.32" class="cls-4"/><polyline id="polyline756" points="300.52 250.21 298.73 250.21 298.73 253.79 300.52 253.79" class="cls-4"/><line id="line758" x1="297.95" x2="297.95" y1="248.72" y2="255.24" class="cls-4"/><polygon id="polygon760" points="293.14 255.92 300.52 255.92 300.52 262.44 293.14 262.44 291.8 261.44 291.8 256.52" class="cls-4"/><polyline id="polyline762" points="300.52 257.41 298.73 257.41 298.73 260.99 300.52 260.99" class="cls-4"/><line id="line764" x1="297.95" x2="297.95" y1="255.92" y2="262.44" class="cls-4"/><polygon id="polygon766" points="293.14 263.11 300.52 263.11 300.52 269.64 293.14 269.64 291.8 268.63 291.8 263.72" class="cls-4"/><polyline id="polyline768" points="300.52 264.61 298.73 264.61 298.73 268.19 300.52 268.19" class="cls-4"/><line id="line770" x1="297.95" x2="297.95" y1="263.11" y2="269.64" class="cls-4"/><polygon id="polygon772" points="293.14 279.9 300.52 279.9 300.52 286.42 293.14 286.42 291.8 285.42 291.8 280.5" class="cls-4"/><polyline id="polyline774" points="300.52 281.39 298.73 281.39 298.73 284.97 300.52 284.97" class="cls-4"/><line id="line776" x1="297.95" x2="297.95" y1="279.9" y2="286.42" class="cls-4"/><polygon id="polygon778" points="293.14 287.1 300.52 287.1 300.52 293.62 293.14 293.62 291.8 292.62 291.8 287.7" class="cls-4"/><polyline id="polyline780" points="300.52 288.59 298.73 288.59 298.73 292.17 300.52 292.17" class="cls-4"/><line id="line782" x1="297.95" x2="297.95" y1="287.1" y2="293.62" class="cls-4"/><polygon id="polygon784" points="293.14 294.29 300.52 294.29 300.52 300.82 293.14 300.82 291.8 299.81 291.8 294.89" class="cls-4"/><polyline id="polyline786" points="300.52 295.79 298.73 295.79 298.73 299.37 300.52 299.37" class="cls-4"/><line id="line788" x1="297.95" x2="297.95" y1="294.29" y2="300.82" class="cls-4"/><polygon id="polygon790" points="303.88 248.72 311.26 248.72 311.26 255.25 303.88 255.25 302.54 254.24 302.54 249.32" class="cls-4"/><polyline id="polyline792" points="311.26 250.21 309.47 250.21 309.47 253.79 311.26 253.79" class="cls-4"/><line id="line794" x1="308.69" x2="308.69" y1="248.72" y2="255.24" class="cls-4"/><polygon id="polygon796" points="303.88 255.92 311.26 255.92 311.26 262.44 303.88 262.44 302.54 261.44 302.54 256.52" class="cls-4"/><polyline id="polyline798" points="311.26 257.41 309.47 257.41 309.47 260.99 311.26 260.99" class="cls-4"/><line id="line800" x1="308.69" x2="308.69" y1="255.92" y2="262.44" class="cls-4"/><polygon id="polygon802" points="303.88 263.11 311.26 263.11 311.26 269.64 303.88 269.64 302.54 268.63 302.54 263.72" class="cls-4"/><polyline id="polyline804" points="311.26 264.61 309.47 264.61 309.47 268.19 311.26 268.19" class="cls-4"/><line id="line806" x1="308.69" x2="308.69" y1="263.11" y2="269.64" class="cls-4"/><polygon id="polygon808" points="303.88 279.9 311.26 279.9 311.26 286.42 303.88 286.42 302.54 285.42 302.54 280.5" class="cls-4"/><polyline id="polyline810" points="311.26 281.39 309.47 281.39 309.47 284.97 311.26 284.97" class="cls-4"/><line id="line812" x1="308.69" x2="308.69" y1="279.9" y2="286.42" class="cls-4"/><polygon id="polygon814" points="303.88 287.1 311.26 287.1 311.26 293.62 303.88 293.62 302.54 292.62 302.54 287.7" class="cls-4"/><polyline id="polyline816" points="311.26 288.59 309.47 288.59 309.47 292.17 311.26 292.17" class="cls-4"/><line id="line818" x1="308.69" x2="308.69" y1="287.1" y2="293.62" class="cls-4"/><polygon id="polygon820" points="303.88 294.29 311.26 294.29 311.26 300.82 303.88 300.82 302.54 299.81 302.54 294.89" class="cls-4"/><polyline id="polyline822" points="311.26 295.79 309.47 295.79 309.47 299.37 311.26 299.37" class="cls-4"/><line id="line824" x1="308.69" x2="308.69" y1="294.29" y2="300.82" class="cls-4"/><polygon id="polygon826" points="314.81 248.72 322.19 248.72 322.19 255.25 314.81 255.25 313.46 254.24 313.46 249.32" class="cls-4"/><polyline id="polyline828" points="322.19 250.21 320.4 250.21 320.4 253.79 322.19 253.79" class="cls-4"/><line id="line830" x1="319.61" x2="319.61" y1="248.72" y2="255.24" class="cls-4"/><polygon id="polygon832" points="314.81 255.92 322.19 255.92 322.19 262.44 314.81 262.44 313.46 261.44 313.46 256.52" class="cls-4"/><polyline id="polyline834" points="322.19 257.41 320.4 257.41 320.4 260.99 322.19 260.99" class="cls-4"/><line id="line836" x1="319.61" x2="319.61" y1="255.92" y2="262.44" class="cls-4"/><polygon id="polygon838" points="314.81 263.11 322.19 263.11 322.19 269.64 314.81 269.64 313.46 268.63 313.46 263.72" class="cls-4"/><polyline id="polyline840" points="322.19 264.61 320.4 264.61 320.4 268.19 322.19 268.19" class="cls-4"/><line id="line842" x1="319.61" x2="319.61" y1="263.11" y2="269.64" class="cls-4"/><polygon id="polygon844" points="314.81 279.9 322.19 279.9 322.19 286.42 314.81 286.42 313.46 285.42 313.46 280.5" class="cls-4"/><polyline id="polyline846" points="322.19 281.39 320.4 281.39 320.4 284.97 322.19 284.97" class="cls-4"/><line id="line848" x1="319.61" x2="319.61" y1="279.9" y2="286.42" class="cls-4"/><polygon id="polygon850" points="314.81 287.1 322.19 287.1 322.19 293.62 314.81 293.62 313.46 292.62 313.46 287.7" class="cls-4"/><polyline id="polyline852" points="322.19 288.59 320.4 288.59 320.4 292.17 322.19 292.17" class="cls-4"/><line id="line854" x1="319.61" x2="319.61" y1="287.1" y2="293.62" class="cls-4"/><polygon id="polygon856" points="314.81 294.29 322.19 294.29 322.19 300.82 314.81 300.82 313.46 299.81 313.46 294.89" class="cls-4"/><polyline id="polyline858" points="322.19 295.79 320.4 295.79 320.4 299.37 322.19 299.37" class="cls-4"/><line id="line860" x1="319.61" x2="319.61" y1="294.29" y2="300.82" class="cls-4"/><polygon id="polygon862" points="325.5 248.72 332.88 248.72 332.88 255.25 325.5 255.25 324.16 254.24 324.16 249.32" class="cls-4"/><polyline id="polyline864" points="332.88 250.21 331.09 250.21 331.09 253.79 332.88 253.79" class="cls-4"/><line id="line866" x1="330.3" x2="330.3" y1="248.72" y2="255.24" class="cls-4"/><polygon id="polygon868" points="325.5 255.92 332.88 255.92 332.88 262.44 325.5 262.44 324.16 261.44 324.16 256.52" class="cls-4"/><polyline id="polyline870" points="332.88 257.41 331.09 257.41 331.09 260.99 332.88 260.99" class="cls-4"/><line id="line872" x1="330.3" x2="330.3" y1="255.92" y2="262.44" class="cls-4"/><polygon id="polygon874" points="325.5 263.11 332.88 263.11 332.88 269.64 325.5 269.64 324.16 268.63 324.16 263.72" class="cls-4"/><polyline id="polyline876" points="332.88 264.61 331.09 264.61 331.09 268.19 332.88 268.19" class="cls-4"/><line id="line878" x1="330.3" x2="330.3" y1="263.11" y2="269.64" class="cls-4"/><polygon id="polygon880" points="325.5 279.9 332.88 279.9 332.88 286.42 325.5 286.42 324.16 285.42 324.16 280.5" class="cls-4"/><polyline id="polyline882" points="332.88 281.39 331.09 281.39 331.09 284.97 332.88 284.97" class="cls-4"/><line id="line884" x1="330.3" x2="330.3" y1="279.9" y2="286.42" class="cls-4"/><polygon id="polygon886" points="325.5 287.1 332.88 287.1 332.88 293.62 325.5 293.62 324.16 292.62 324.16 287.7" class="cls-4"/><polyline id="polyline888" points="332.88 288.59 331.09 288.59 331.09 292.17 332.88 292.17" class="cls-4"/><line id="line890" x1="330.3" x2="330.3" y1="287.1" y2="293.62" class="cls-4"/><polygon id="polygon892" points="325.5 294.29 332.88 294.29 332.88 300.82 325.5 300.82 324.16 299.81 324.16 294.89" class="cls-4"/><polyline id="polyline894" points="332.88 295.79 331.09 295.79 331.09 299.37 332.88 299.37" class="cls-4"/><line id="line896" x1="330.3" x2="330.3" y1="294.29" y2="300.82" class="cls-4"/><polygon id="polygon898" points="336.53 248.72 343.91 248.72 343.91 255.25 336.53 255.25 335.19 254.24 335.19 249.32" class="cls-4"/><polyline id="polyline900" points="343.91 250.21 342.12 250.21 342.12 253.79 343.91 253.79" class="cls-4"/><line id="line902" x1="341.34" x2="341.34" y1="248.72" y2="255.24" class="cls-4"/><polygon id="polygon904" points="336.53 255.92 343.91 255.92 343.91 262.44 336.53 262.44 335.19 261.44 335.19 256.52" class="cls-4"/><polyline id="polyline906" points="343.91 257.41 342.12 257.41 342.12 260.99 343.91 260.99" class="cls-4"/><line id="line908" x1="341.34" x2="341.34" y1="255.92" y2="262.44" class="cls-4"/><polygon id="polygon910" points="336.53 263.11 343.91 263.11 343.91 269.64 336.53 269.64 335.19 268.63 335.19 263.72" class="cls-4"/><polyline id="polyline912" points="343.91 264.61 342.12 264.61 342.12 268.19 343.91 268.19" class="cls-4"/><line id="line914" x1="341.34" x2="341.34" y1="263.11" y2="269.64" class="cls-4"/><polygon id="polygon916" points="336.53 279.9 343.91 279.9 343.91 286.42 336.53 286.42 335.19 285.42 335.19 280.5" class="cls-4"/><polyline id="polyline918" points="343.91 281.39 342.12 281.39 342.12 284.97 343.91 284.97" class="cls-4"/><line id="line920" x1="341.34" x2="341.34" y1="279.9" y2="286.42" class="cls-4"/><polygon id="polygon922" points="336.53 287.1 343.91 287.1 343.91 293.62 336.53 293.62 335.19 292.62 335.19 287.7" class="cls-4"/><polyline id="polyline924" points="343.91 288.59 342.12 288.59 342.12 292.17 343.91 292.17" class="cls-4"/><line id="line926" x1="341.34" x2="341.34" y1="287.1" y2="293.62" class="cls-4"/><polygon id="polygon928" points="336.53 294.29 343.91 294.29 343.91 300.82 336.53 300.82 335.19 299.81 335.19 294.89" class="cls-4"/><polyline id="polyline930" points="343.91 295.79 342.12 295.79 342.12 299.37 343.91 299.37" class="cls-4"/><line id="line932" x1="341.34" x2="341.34" y1="294.29" y2="300.82" class="cls-4"/><polygon id="polygon934" points="347.49 248.72 354.87 248.72 354.87 255.25 347.49 255.25 346.14 254.24 346.14 249.32" class="cls-4"/><polyline id="polyline936" points="354.87 250.21 353.08 250.21 353.08 253.79 354.87 253.79" class="cls-4"/><line id="line938" x1="352.29" x2="352.29" y1="248.72" y2="255.24" class="cls-4"/><polygon id="polygon940" points="347.49 255.92 354.87 255.92 354.87 262.44 347.49 262.44 346.14 261.44 346.14 256.52" class="cls-4"/><polyline id="polyline942" points="354.87 257.41 353.08 257.41 353.08 260.99 354.87 260.99" class="cls-4"/><line id="line944" x1="352.29" x2="352.29" y1="255.92" y2="262.44" class="cls-4"/><polygon id="polygon946" points="347.49 263.11 354.87 263.11 354.87 269.64 347.49 269.64 346.14 268.63 346.14 263.72" class="cls-4"/><polyline id="polyline948" points="354.87 264.61 353.08 264.61 353.08 268.19 354.87 268.19" class="cls-4"/><line id="line950" x1="352.29" x2="352.29" y1="263.11" y2="269.64" class="cls-4"/><polygon id="polygon952" points="347.49 279.9 354.87 279.9 354.87 286.42 347.49 286.42 346.14 285.42 346.14 280.5" class="cls-4"/><polyline id="polyline954" points="354.87 281.39 353.08 281.39 353.08 284.97 354.87 284.97" class="cls-4"/><line id="line956" x1="352.29" x2="352.29" y1="279.9" y2="286.42" class="cls-4"/><polygon id="polygon958" points="347.49 287.1 354.87 287.1 354.87 293.62 347.49 293.62 346.14 292.62 346.14 287.7" class="cls-4"/><polyline id="polyline960" points="354.87 288.59 353.08 288.59 353.08 292.17 354.87 292.17" class="cls-4"/><line id="line962" x1="352.29" x2="352.29" y1="287.1" y2="293.62" class="cls-4"/><polygon id="polygon964" points="347.49 294.29 354.87 294.29 354.87 300.82 347.49 300.82 346.14 299.81 346.14 294.89" class="cls-4"/><polyline id="polyline966" points="354.87 295.79 353.08 295.79 353.08 299.37 354.87 299.37" class="cls-4"/><line id="line968" x1="352.29" x2="352.29" y1="294.29" y2="300.82" class="cls-4"/><polygon id="polygon970" points="358.22 248.72 365.6 248.72 365.6 255.25 358.22 255.25 356.88 254.24 356.88 249.32" class="cls-4"/><polyline id="polyline972" points="365.6 250.21 363.81 250.21 363.81 253.79 365.6 253.79" class="cls-4"/><line id="line974" x1="363.03" x2="363.03" y1="248.72" y2="255.24" class="cls-4"/><polygon id="polygon976" points="358.22 255.92 365.6 255.92 365.6 262.44 358.22 262.44 356.88 261.44 356.88 256.52" class="cls-4"/><polyline id="polyline978" points="365.6 257.41 363.81 257.41 363.81 260.99 365.6 260.99" class="cls-4"/><line id="line980" x1="363.03" x2="363.03" y1="255.92" y2="262.44" class="cls-4"/><polygon id="polygon982" points="358.22 263.11 365.6 263.11 365.6 269.64 358.22 269.64 356.88 268.63 356.88 263.72" class="cls-4"/><polyline id="polyline984" points="365.6 264.61 363.81 264.61 363.81 268.19 365.6 268.19" class="cls-4"/><line id="line986" x1="363.03" x2="363.03" y1="263.11" y2="269.64" class="cls-4"/><polygon id="polygon988" points="358.22 279.9 365.6 279.9 365.6 286.42 358.22 286.42 356.88 285.42 356.88 280.5" class="cls-4"/><polyline id="polyline990" points="365.6 281.39 363.81 281.39 363.81 284.97 365.6 284.97" class="cls-4"/><line id="line992" x1="363.03" x2="363.03" y1="279.9" y2="286.42" class="cls-4"/><polygon id="polygon994" points="358.22 287.1 365.6 287.1 365.6 293.62 358.22 293.62 356.88 292.62 356.88 287.7" class="cls-4"/><polyline id="polyline996" points="365.6 288.59 363.81 288.59 363.81 292.17 365.6 292.17" class="cls-4"/><line id="line998" x1="363.03" x2="363.03" y1="287.1" y2="293.62" class="cls-4"/><polygon id="polygon1000" points="358.22 294.29 365.6 294.29 365.6 300.82 358.22 300.82 356.88 299.81 356.88 294.89" class="cls-4"/><polyline id="polyline1002" points="365.6 295.79 363.81 295.79 363.81 299.37 365.6 299.37" class="cls-4"/><line id="line1004" x1="363.03" x2="363.03" y1="294.29" y2="300.82" class="cls-4"/><polygon id="polygon1006" points="369.4 248.72 376.78 248.72 376.78 255.25 369.4 255.25 368.06 254.24 368.06 249.32" class="cls-4"/><polyline id="polyline1008" points="376.78 250.21 374.99 250.21 374.99 253.79 376.78 253.79" class="cls-4"/><line id="line1010" x1="374.21" x2="374.21" y1="248.72" y2="255.24" class="cls-4"/><polygon id="polygon1012" points="369.4 255.92 376.78 255.92 376.78 262.44 369.4 262.44 368.06 261.44 368.06 256.52" class="cls-4"/><polyline id="polyline1014" points="376.78 257.41 374.99 257.41 374.99 260.99 376.78 260.99" class="cls-4"/><line id="line1016" x1="374.21" x2="374.21" y1="255.92" y2="262.44" class="cls-4"/><polygon id="polygon1018" points="369.4 263.11 376.78 263.11 376.78 269.64 369.4 269.64 368.06 268.63 368.06 263.72" class="cls-4"/><polyline id="polyline1020" points="376.78 264.61 374.99 264.61 374.99 268.19 376.78 268.19" class="cls-4"/><line id="line1022" x1="374.21" x2="374.21" y1="263.11" y2="269.64" class="cls-4"/><polygon id="polygon1024" points="369.4 279.9 376.78 279.9 376.78 286.42 369.4 286.42 368.06 285.42 368.06 280.5" class="cls-4"/><polyline id="polyline1026" points="376.78 281.39 374.99 281.39 374.99 284.97 376.78 284.97" class="cls-4"/><line id="line1028" x1="374.21" x2="374.21" y1="279.9" y2="286.42" class="cls-4"/><polygon id="polygon1030" points="369.4 287.1 376.78 287.1 376.78 293.62 369.4 293.62 368.06 292.62 368.06 287.7" class="cls-4"/><polyline id="polyline1032" points="376.78 288.59 374.99 288.59 374.99 292.17 376.78 292.17" class="cls-4"/><line id="line1034" x1="374.21" x2="374.21" y1="287.1" y2="293.62" class="cls-4"/><polygon id="polygon1036" points="369.4 294.29 376.78 294.29 376.78 300.82 369.4 300.82 368.06 299.81 368.06 294.89" class="cls-4"/><polyline id="polyline1038" points="376.78 295.79 374.99 295.79 374.99 299.37 376.78 299.37" class="cls-4"/><line id="line1040" x1="374.21" x2="374.21" y1="294.29" y2="300.82" class="cls-4"/><polygon id="polygon1042" points="379.91 248.72 387.29 248.72 387.29 255.25 379.91 255.25 378.57 254.24 378.57 249.32" class="cls-4"/><polyline id="polyline1044" points="387.29 250.21 385.5 250.21 385.5 253.79 387.29 253.79" class="cls-4"/><line id="line1046" x1="384.72" x2="384.72" y1="248.72" y2="255.24" class="cls-4"/><polygon id="polygon1048" points="379.91 255.92 387.29 255.92 387.29 262.44 379.91 262.44 378.57 261.44 378.57 256.52" class="cls-4"/><polyline id="polyline1050" points="387.29 257.41 385.5 257.41 385.5 260.99 387.29 260.99" class="cls-4"/><line id="line1052" x1="384.72" x2="384.72" y1="255.92" y2="262.44" class="cls-4"/><polygon id="polygon1054" points="379.91 263.11 387.29 263.11 387.29 269.64 379.91 269.64 378.57 268.63 378.57 263.72" class="cls-4"/><polyline id="polyline1056" points="387.29 264.61 385.5 264.61 385.5 268.19 387.29 268.19" class="cls-4"/><line id="line1058" x1="384.72" x2="384.72" y1="263.11" y2="269.64" class="cls-4"/><polygon id="polygon1060" points="379.91 279.9 387.29 279.9 387.29 286.42 379.91 286.42 378.57 285.42 378.57 280.5" class="cls-4"/><polyline id="polyline1062" points="387.29 281.39 385.5 281.39 385.5 284.97 387.29 284.97" class="cls-4"/><line id="line1064" x1="384.72" x2="384.72" y1="279.9" y2="286.42" class="cls-4"/><polygon id="polygon1066" points="379.91 287.1 387.29 287.1 387.29 293.62 379.91 293.62 378.57 292.62 378.57 287.7" class="cls-4"/><polyline id="polyline1068" points="387.29 288.59 385.5 288.59 385.5 292.17 387.29 292.17" class="cls-4"/><line id="line1070" x1="384.72" x2="384.72" y1="287.1" y2="293.62" class="cls-4"/><polygon id="polygon1072" points="379.91 294.29 387.29 294.29 387.29 300.82 379.91 300.82 378.57 299.81 378.57 294.89" class="cls-4"/><polyline id="polyline1074" points="387.29 295.79 385.5 295.79 385.5 299.37 387.29 299.37" class="cls-4"/><line id="line1076" x1="384.72" x2="384.72" y1="294.29" y2="300.82" class="cls-4"/><polygon id="polygon1078" points="390.87 248.72 398.24 248.72 398.24 255.25 390.87 255.25 389.52 254.24 389.52 249.32" class="cls-4"/><polyline id="polyline1080" points="398.24 250.21 396.45 250.21 396.45 253.79 398.24 253.79" class="cls-4"/><line id="line1082" x1="395.67" x2="395.67" y1="248.72" y2="255.24" class="cls-4"/><polygon id="polygon1084" points="390.87 255.92 398.24 255.92 398.24 262.44 390.87 262.44 389.52 261.44 389.52 256.52" class="cls-4"/><polyline id="polyline1086" points="398.24 257.41 396.45 257.41 396.45 260.99 398.24 260.99" class="cls-4"/><line id="line1088" x1="395.67" x2="395.67" y1="255.92" y2="262.44" class="cls-4"/><polygon id="polygon1090" points="390.87 263.11 398.24 263.11 398.24 269.64 390.87 269.64 389.52 268.63 389.52 263.72" class="cls-4"/><polyline id="polyline1092" points="398.24 264.61 396.45 264.61 396.45 268.19 398.24 268.19" class="cls-4"/><line id="line1094" x1="395.67" x2="395.67" y1="263.11" y2="269.64" class="cls-4"/><polygon id="polygon1096" points="390.87 279.9 398.24 279.9 398.24 286.42 390.87 286.42 389.52 285.42 389.52 280.5" class="cls-4"/><polyline id="polyline1098" points="398.24 281.39 396.45 281.39 396.45 284.97 398.24 284.97" class="cls-4"/><line id="line1100" x1="395.67" x2="395.67" y1="279.9" y2="286.42" class="cls-4"/><polygon id="polygon1102" points="390.87 287.1 398.24 287.1 398.24 293.62 390.87 293.62 389.52 292.62 389.52 287.7" class="cls-4"/><polyline id="polyline1104" points="398.24 288.59 396.45 288.59 396.45 292.17 398.24 292.17" class="cls-4"/><line id="line1106" x1="395.67" x2="395.67" y1="287.1" y2="293.62" class="cls-4"/><polygon id="polygon1108" points="390.87 294.29 398.24 294.29 398.24 300.82 390.87 300.82 389.52 299.81 389.52 294.89" class="cls-4"/><polyline id="polyline1110" points="398.24 295.79 396.45 295.79 396.45 299.37 398.24 299.37" class="cls-4"/><line id="line1112" x1="395.67" x2="395.67" y1="294.29" y2="300.82" class="cls-4"/><polygon id="polygon1114" points="401.82 248.72 409.2 248.72 409.2 255.25 401.82 255.25 400.48 254.24 400.48 249.32" class="cls-4"/><polyline id="polyline1116" points="409.2 250.21 407.41 250.21 407.41 253.79 409.2 253.79" class="cls-4"/><line id="line1118" x1="406.63" x2="406.63" y1="248.72" y2="255.24" class="cls-4"/><polygon id="polygon1120" points="401.82 255.92 409.2 255.92 409.2 262.44 401.82 262.44 400.48 261.44 400.48 256.52" class="cls-4"/><polyline id="polyline1122" points="409.2 257.41 407.41 257.41 407.41 260.99 409.2 260.99" class="cls-4"/><line id="line1124" x1="406.63" x2="406.63" y1="255.92" y2="262.44" class="cls-4"/><polygon id="polygon1126" points="401.82 263.11 409.2 263.11 409.2 269.64 401.82 269.64 400.48 268.63 400.48 263.72" class="cls-4"/><polyline id="polyline1128" points="409.2 264.61 407.41 264.61 407.41 268.19 409.2 268.19" class="cls-4"/><line id="line1130" x1="406.63" x2="406.63" y1="263.11" y2="269.64" class="cls-4"/><polygon id="polygon1132" points="401.82 279.9 409.2 279.9 409.2 286.42 401.82 286.42 400.48 285.42 400.48 280.5" class="cls-4"/><polyline id="polyline1134" points="409.2 281.39 407.41 281.39 407.41 284.97 409.2 284.97" class="cls-4"/><line id="line1136" x1="406.63" x2="406.63" y1="279.9" y2="286.42" class="cls-4"/><polygon id="polygon1138" points="401.82 287.1 409.2 287.1 409.2 293.62 401.82 293.62 400.48 292.62 400.48 287.7" class="cls-4"/><polyline id="polyline1140" points="409.2 288.59 407.41 288.59 407.41 292.17 409.2 292.17" class="cls-4"/><line id="line1142" x1="406.63" x2="406.63" y1="287.1" y2="293.62" class="cls-4"/><polygon id="polygon1144" points="401.82 294.29 409.2 294.29 409.2 300.82 401.82 300.82 400.48 299.81 400.48 294.89" class="cls-4"/><polyline id="polyline1146" points="409.2 295.79 407.41 295.79 407.41 299.37 409.2 299.37" class="cls-4"/><line id="line1148" x1="406.63" x2="406.63" y1="294.29" y2="300.82" class="cls-4"/><polygon id="polygon1150" points="412.67 248.72 420.05 248.72 420.05 255.25 412.67 255.25 411.32 254.24 411.32 249.32" class="cls-4"/><polyline id="polyline1152" points="420.05 250.21 418.26 250.21 418.26 253.79 420.05 253.79" class="cls-4"/><line id="line1154" x1="417.47" x2="417.47" y1="248.72" y2="255.24" class="cls-4"/><polygon id="polygon1156" points="412.67 255.92 420.05 255.92 420.05 262.44 412.67 262.44 411.32 261.44 411.32 256.52" class="cls-4"/><polyline id="polyline1158" points="420.05 257.41 418.26 257.41 418.26 260.99 420.05 260.99" class="cls-4"/><line id="line1160" x1="417.47" x2="417.47" y1="255.92" y2="262.44" class="cls-4"/><polygon id="polygon1162" points="412.67 263.11 420.05 263.11 420.05 269.64 412.67 269.64 411.32 268.63 411.32 263.72" class="cls-4"/><polyline id="polyline1164" points="420.05 264.61 418.26 264.61 418.26 268.19 420.05 268.19" class="cls-4"/><line id="line1166" x1="417.47" x2="417.47" y1="263.11" y2="269.64" class="cls-4"/><polygon id="polygon1168" points="412.67 279.9 420.05 279.9 420.05 286.42 412.67 286.42 411.32 285.42 411.32 280.5" class="cls-4"/><polyline id="polyline1170" points="420.05 281.39 418.26 281.39 418.26 284.97 420.05 284.97" class="cls-4"/><line id="line1172" x1="417.47" x2="417.47" y1="279.9" y2="286.42" class="cls-4"/><polygon id="polygon1174" points="412.67 287.1 420.05 287.1 420.05 293.62 412.67 293.62 411.32 292.62 411.32 287.7" class="cls-4"/><polyline id="polyline1176" points="420.05 288.59 418.26 288.59 418.26 292.17 420.05 292.17" class="cls-4"/><line id="line1178" x1="417.47" x2="417.47" y1="287.1" y2="293.62" class="cls-4"/><polygon id="polygon1180" points="412.67 294.29 420.05 294.29 420.05 300.82 412.67 300.82 411.32 299.81 411.32 294.89" class="cls-4"/><polyline id="polyline1182" points="420.05 295.79 418.26 295.79 418.26 299.37 420.05 299.37" class="cls-4"/><line id="line1184" x1="417.47" x2="417.47" y1="294.29" y2="300.82" class="cls-4"/><polygon id="polygon1186" points="423.88 249.43 431.01 249.43 431.01 255.74 423.88 255.74 422.59 254.77 422.59 250.01" class="cls-4"/><polyline id="polyline1188" points="431.01 250.88 429.28 250.88 429.28 254.34 431.01 254.34" class="cls-4"/><line id="line1190" x1="428.53" x2="428.53" y1="249.43" y2="255.74" class="cls-4"/><polygon id="polygon1192" points="423.88 256.39 431.01 256.39 431.01 262.7 423.88 262.7 422.59 261.72 422.59 256.97" class="cls-4"/><polyline id="polyline1194" points="431.01 257.83 429.28 257.83 429.28 261.29 431.01 261.29" class="cls-4"/><line id="line1196" x1="428.53" x2="428.53" y1="256.39" y2="262.7" class="cls-4"/><polygon id="polygon1198" points="423.88 263.34 431.01 263.34 431.01 269.65 423.88 269.65 422.59 268.68 422.59 263.93" class="cls-4"/><polyline id="polyline1200" points="431.01 264.79 429.28 264.79 429.28 268.25 431.01 268.25" class="cls-4"/><line id="line1202" x1="428.53" x2="428.53" y1="263.34" y2="269.65" class="cls-4"/><polygon id="polygon1204" points="423.88 279.56 431.01 279.56 431.01 285.87 423.88 285.87 422.59 284.9 422.59 280.14" class="cls-4"/><polyline id="polyline1206" points="431.01 281.01 429.28 281.01 429.28 284.47 431.01 284.47" class="cls-4"/><line id="line1208" x1="428.53" x2="428.53" y1="279.56" y2="285.87" class="cls-4"/><polygon id="polygon1210" points="423.88 286.52 431.01 286.52 431.01 292.83 423.88 292.83 422.59 291.86 422.59 287.1" class="cls-4"/><polyline id="polyline1212" points="431.01 287.97 429.28 287.97 429.28 291.42 431.01 291.42" class="cls-4"/><line id="line1214" x1="428.53" x2="428.53" y1="286.52" y2="292.83" class="cls-4"/><polygon id="polygon1216" points="423.88 293.48 431.01 293.48 431.01 299.79 423.88 299.79 422.59 298.81 422.59 294.06" class="cls-4"/><polyline id="polyline1218" points="431.01 294.92 429.28 294.92 429.28 298.38 431.01 298.38" class="cls-4"/><line id="line1220" x1="428.53" x2="428.53" y1="293.48" y2="299.78" class="cls-4"/><polygon id="polygon1222" points="434.24 250.21 441.62 250.21 441.62 256.74 434.24 256.74 432.9 255.74 432.9 250.82" class="cls-4"/><polyline id="polyline1224" points="441.62 251.71 439.83 251.71 439.83 255.29 441.62 255.29" class="cls-4"/><line id="line1226" x1="439.05" x2="439.05" y1="250.21" y2="256.74" class="cls-4"/><polygon id="polygon1228" points="434.24 257.41 441.62 257.41 441.62 263.94 434.24 263.94 432.9 262.93 432.9 258.01" class="cls-4"/><polyline id="polyline1230" points="441.62 258.91 439.83 258.91 439.83 262.49 441.62 262.49" class="cls-4"/><line id="line1232" x1="439.05" x2="439.05" y1="257.41" y2="263.94" class="cls-4"/><polygon id="polygon1234" points="434.24 264.61 441.62 264.61 441.62 271.14 434.24 271.14 432.9 270.13 432.9 265.21" class="cls-4"/><polyline id="polyline1236" points="441.62 266.11 439.83 266.11 439.83 269.68 441.62 269.68" class="cls-4"/><line id="line1238" x1="439.05" x2="439.05" y1="264.61" y2="271.14" class="cls-4"/><polygon id="polygon1240" points="434.24 278.13 441.62 278.13 441.62 284.66 434.24 284.66 432.9 283.65 432.9 278.73" class="cls-4"/><polyline id="polyline1242" points="441.62 279.63 439.83 279.63 439.83 283.2 441.62 283.2" class="cls-4"/><line id="line1244" x1="439.05" x2="439.05" y1="278.13" y2="284.66" class="cls-4"/><polygon id="polygon1246" points="434.24 285.33 441.62 285.33 441.62 291.86 434.24 291.86 432.9 290.85 432.9 285.93" class="cls-4"/><polyline id="polyline1248" points="441.62 286.82 439.83 286.82 439.83 290.4 441.62 290.4" class="cls-4"/><line id="line1250" x1="439.05" x2="439.05" y1="285.33" y2="291.86" class="cls-4"/><polygon id="polygon1252" points="434.24 292.53 441.62 292.53 441.62 299.05 434.24 299.05 432.9 298.05 432.9 293.13" class="cls-4"/><polyline id="polyline1254" points="441.62 294.02 439.83 294.02 439.83 297.6 441.62 297.6" class="cls-4"/><line id="line1256" x1="439.05" x2="439.05" y1="292.53" y2="299.05" class="cls-4"/><line id="line1258" x1="461.53" x2="461.53" y1="251.41" y2="296.65" class="cls-1"/><line id="line1260" x1="476.5" x2="461.53" y1="255.92" y2="255.92" class="cls-1"/><line id="line1262" x1="476.5" x2="461.53" y1="266.38" y2="266.38" class="cls-1"/><line id="line1264" x1="476.5" x2="461.53" y1="276.71" y2="276.71" class="cls-1"/><line id="line1266" x1="476.5" x2="461.53" y1="290.4" y2="290.36" class="cls-1"/><path id="path1268" d="m 460.93,248.34 -1.08,8.42 a 22,22 0 0 1 -13.29,-2.4 v -8.18" class="cls-5"/><path id="path1270" d="m 460.93,300.79 -1.08,-8.45 a 22.14,22.14 0 0 0 -7.38,0.27 21.73,21.73 0 0 0 -5.91,2.14 v 8.18" class="cls-5"/><path id="path1272" d="m 218.8,243.92 v 3.84 a 17.81,17.81 0 0 0 3.8,0.44 18.36,18.36 0 0 0 4.25,-0.44 v -3.9" class="cls-5"/><path id="path1274" d="m 231.77,243.92 v 3.84 a 17.83,17.83 0 0 0 3.81,0.44 18.43,18.43 0 0 0 4.25,-0.44 v -3.9" class="cls-5"/><path id="path1276" d="m 218.8,305.6 v -3.84 a 18.17,18.17 0 0 1 8,0 v 3.9" class="cls-5"/><path id="path1278" d="m 231.77,305.6 v -3.84 a 18.22,18.22 0 0 1 8.06,0 v 3.9" class="cls-5"/><path id="path1280" d="m 71.2,244.03 1.12,11.22 a 48.71,48.71 0 0 0 7.05,0.11 47,47 0 0 0 7.38,-1 v -10.58" class="cls-5"/><path id="path1282" d="m 71.2,304.95 1.12,-11.22 a 48.71,48.71 0 0 1 7.05,-0.11 47,47 0 0 1 7.38,1 v 10.57" class="cls-5"/><polyline id="polyline1284" points="69.77 248.72 69.77 275.14 56.3 275.14" class="cls-2"/><polyline id="polyline1286" points="56.3 282.64 69.77 282.64 69.77 300.68" class="cls-2"/><polyline id="polyline1288" points="94.03 247.64 94.03 270.7 87.66 270.7 87.66 246.86" class="cls-2"/><polyline id="polyline1290" points="94.03 301.67 94.03 281.81 87.66 281.81 87.66 301.51" class="cls-2"/></g></svg>