<svg xmlns="http://www.w3.org/2000/svg" id="Layer_1" data-name="Layer 1" viewBox="0 0 600 600"><defs><style>.cls-1,.cls-5,.cls-8{font-size:10.63px;font-family:B612-Regular,B612}.cls-1,.cls-3,.cls-4{fill:#fff}.cls-10,.cls-2,.cls-7{fill:none}.cls-2,.cls-4{stroke:#fff}.cls-10,.cls-2,.cls-4,.cls-7{stroke-miterlimit:10;stroke-width:2px}.cls-5,.cls-6{fill:red}.cls-7{stroke:red}.cls-8,.cls-9{fill:#ffae00}.cls-10{stroke:#ffae00}</style></defs><rect width="600" height="600"/><text class="cls-1" transform="translate(246.65 163.54)">+10</text><path d="M254.51,173.27l4.81-8a.66.66,0,0,1,1.14,0l4.49,8a.63.63,0,0,1,0,.66l-4.65,7.81a.66.66,0,0,1-1.13,0l-4.65-7.8A.69.69,0,0,1,254.51,173.27Z" class="cls-2"/><path d="M270.2,165.38a.31.31,0,0,1,.56,0l1.3,3.22,1.45,3.56a.28.28,0,0,1-.29.35h-5.48a.27.27,0,0,1-.28-.35l1.44-3.56Z" class="cls-3"/><line x1="270.48" x2="270.48" y1="168.86" y2="179.37" class="cls-4"/><text class="cls-5" transform="translate(289.41 414.47)">05</text><path d="M307.65,430.13a.31.31,0,0,1-.56,0l-1.3-3.22-1.45-3.56a.27.27,0,0,1,.29-.35h5.48a.27.27,0,0,1,.28.35L309,426.91Z" class="cls-6"/><line x1="307.37" x2="307.37" y1="426.65" y2="416.14" class="cls-7"/><text class="cls-8" transform="translate(379.62 325.69)">-05</text><path d="M403.08,341.34a.32.32,0,0,1-.57,0l-1.3-3.21-1.44-3.57a.27.27,0,0,1,.29-.35h5.48a.27.27,0,0,1,.28.35l-1.44,3.57Z" class="cls-9"/><line x1="402.8" x2="402.8" y1="337.86" y2="327.36" class="cls-10"/><circle cx="390.83" cy="336.62" r="6.53" class="cls-9"/><rect width="13.06" height="13.06" x="288.87" y="416.92" class="cls-6"/><text class="cls-1" transform="translate(180.25 284.34)">-10</text><path d="M188.11,294.08l4.81-8a.65.65,0,0,1,1.14,0l4.49,8a.65.65,0,0,1,0,.67l-4.65,7.81a.66.66,0,0,1-1.13,0l-4.65-7.8A.69.69,0,0,1,188.11,294.08Z" class="cls-4"/><path d="M204.36,300a.31.31,0,0,1-.56,0l-1.3-3.22-1.44-3.56a.27.27,0,0,1,.28-.35h5.48a.28.28,0,0,1,.29.35l-1.45,3.56Z" class="cls-3"/><line x1="204.08" x2="204.08" y1="296.52" y2="286.01" class="cls-4"/></svg>