<svg xmlns="http://www.w3.org/2000/svg" xmlns:svg="http://www.w3.org/2000/svg" id="svg8" width="128" height="128" version="1.1" viewBox="0 0 33.867 33.867"><metadata id="metadata5"/><g id="layer1" transform="translate(0,-263.13332)"><path style="fill:#ff94ff;fill-opacity:1;fill-rule:nonzero;stroke:none;stroke-width:12.95256329;stroke-linecap:round;stroke-linejoin:round;stroke-miterlimit:4;stroke-dasharray:none;stroke-dashoffset:0;stroke-opacity:1;paint-order:markers stroke fill" id="rect816" d="M 59.255859 2.0195312 L 59.255859 25.703125 A 38.638336 38.638336 0 0 1 64 25.361328 A 38.638336 38.638336 0 0 1 68.744141 25.689453 L 68.744141 2.0195312 L 59.255859 2.0195312 z M 2.0195312 59.255859 L 2.0195312 68.744141 L 25.703125 68.744141 A 38.638336 38.638336 0 0 1 25.361328 64 A 38.638336 38.638336 0 0 1 25.689453 59.255859 L 2.0195312 59.255859 z M 102.29688 59.255859 A 38.638336 38.638336 0 0 1 102.63867 64 A 38.638336 38.638336 0 0 1 102.31055 68.744141 L 125.98047 68.744141 L 125.98047 59.255859 L 102.29688 59.255859 z M 68.744141 102.29688 A 38.638336 38.638336 0 0 1 64 102.63867 A 38.638336 38.638336 0 0 1 59.255859 102.31055 L 59.255859 125.98047 L 68.744141 125.98047 L 68.744141 102.29688 z" transform="matrix(0.26458333,0,0,0.26458333,0,263.13332)"/><circle style="fill:none;fill-opacity:1;fill-rule:nonzero;stroke:#ff94ff;stroke-width:2.64583325;stroke-linecap:round;stroke-linejoin:round;stroke-miterlimit:4;stroke-dasharray:none;stroke-dashoffset:0;stroke-opacity:1;paint-order:markers stroke fill" id="path814" cx="16.933" cy="280.067" r="10.223"/></g></svg>