<svg xmlns="http://www.w3.org/2000/svg" id="Layer_1" data-name="Layer 1" viewBox="0 0 599.2 599.2"><defs><style>.cls-1,.cls-2{fill:none;stroke-miterlimit:10;stroke-width:2px}.cls-1{stroke:#fff}.cls-2{stroke:#00e900}.cls-3{fill:#00e900}</style></defs><rect width="599.2" height="599.2"/><path d="M523.48,146.3Z" class="cls-1" transform="translate(0 0)"/><path d="M523.48,208.3Z" class="cls-1" transform="translate(0 0)"/><circle cx="250.66" cy="308.39" r="8.22" class="cls-2"/><line x1="270.28" x2="258.88" y1="308.39" y2="308.39" class="cls-2"/><line x1="241.56" x2="230.17" y1="308.39" y2="308.39" class="cls-2"/><line x1="250.66" x2="250.66" y1="300.43" y2="292.4" class="cls-2"/><circle cx="249.02" cy="279.57" r="3.62" class="cls-2"/><line x1="297" x2="252.64" y1="279.57" y2="279.57" class="cls-2"/><polygon points="291.42 279.57 295.29 277.33 299.16 275.1 299.16 279.57 299.16 284.04 295.29 281.8 291.42 279.57" class="cls-3"/><line x1="201.04" x2="245.4" y1="279.57" y2="279.57" class="cls-2"/><polygon points="206.62 279.57 202.75 281.8 198.88 284.04 198.88 279.57 198.88 275.1 202.75 277.33 206.62 279.57" class="cls-3"/></svg>